<mxfile host="Electron" modified="2024-07-25T14:32:16.347Z" agent="Mozilla/5.0 (Macintosh; Intel Mac OS X 10_15_7) AppleWebKit/537.36 (KHTML, like Gecko) draw.io/24.6.4 Chrome/124.0.6367.207 Electron/30.0.6 Safari/537.36" etag="gnsNCkoszvCCLv-7tPpU" version="24.6.4" type="device" pages="3">
  <diagram name="第 1 页" id="YtFQPeGC1CvswgXycj43">
    <mxGraphModel dx="731" dy="674" grid="1" gridSize="10" guides="1" tooltips="1" connect="1" arrows="1" fold="1" page="1" pageScale="1" pageWidth="1169" pageHeight="1654" math="0" shadow="0">
      <root>
        <mxCell id="0" />
        <mxCell id="1" parent="0" />
        <mxCell id="JqO0ZnZ2Jt7lgx0bNs5c-1" value="Assets" style="childLayout=tableLayout;recursiveResize=0;strokeColor=#82b366;fillColor=#d5e8d4;shadow=1;labelBackgroundColor=none;rounded=0;" parent="1" vertex="1">
          <mxGeometry x="60" y="40" width="373" height="200.0000000000001" as="geometry" />
        </mxCell>
        <mxCell id="JqO0ZnZ2Jt7lgx0bNs5c-2" style="shape=tableRow;horizontal=0;startSize=0;swimlaneHead=0;swimlaneBody=0;top=0;left=0;bottom=0;right=0;dropTarget=0;collapsible=0;recursiveResize=0;expand=0;fontStyle=0;strokeColor=#0F8B8D;fillColor=#FAE5C7;labelBackgroundColor=none;fontColor=#143642;rounded=0;" parent="JqO0ZnZ2Jt7lgx0bNs5c-1" vertex="1">
          <mxGeometry width="373" height="33" as="geometry" />
        </mxCell>
        <mxCell id="JqO0ZnZ2Jt7lgx0bNs5c-3" value="session A" style="connectable=0;recursiveResize=0;strokeColor=#0F8B8D;fillColor=#FAE5C7;align=center;fontStyle=1;fontColor=#143642;html=1;labelBackgroundColor=none;rounded=0;" parent="JqO0ZnZ2Jt7lgx0bNs5c-2" vertex="1">
          <mxGeometry width="93" height="33" as="geometry">
            <mxRectangle width="93" height="33" as="alternateBounds" />
          </mxGeometry>
        </mxCell>
        <mxCell id="JqO0ZnZ2Jt7lgx0bNs5c-4" value="session B" style="connectable=0;recursiveResize=0;strokeColor=#0F8B8D;fillColor=#FAE5C7;align=center;fontStyle=1;fontColor=#143642;html=1;labelBackgroundColor=none;rounded=0;" parent="JqO0ZnZ2Jt7lgx0bNs5c-2" vertex="1">
          <mxGeometry x="93" width="94" height="33" as="geometry">
            <mxRectangle width="94" height="33" as="alternateBounds" />
          </mxGeometry>
        </mxCell>
        <mxCell id="JqO0ZnZ2Jt7lgx0bNs5c-5" value="session C" style="connectable=0;recursiveResize=0;strokeColor=#0F8B8D;fillColor=#FAE5C7;align=center;fontStyle=1;fontColor=#143642;html=1;labelBackgroundColor=none;rounded=0;" parent="JqO0ZnZ2Jt7lgx0bNs5c-2" vertex="1">
          <mxGeometry x="187" width="93" height="33" as="geometry">
            <mxRectangle width="93" height="33" as="alternateBounds" />
          </mxGeometry>
        </mxCell>
        <mxCell id="JqO0ZnZ2Jt7lgx0bNs5c-50" value="session D" style="connectable=0;recursiveResize=0;strokeColor=#0F8B8D;fillColor=#FAE5C7;align=center;fontStyle=1;fontColor=#143642;html=1;labelBackgroundColor=none;rounded=0;" parent="JqO0ZnZ2Jt7lgx0bNs5c-2" vertex="1">
          <mxGeometry x="280" width="93" height="33" as="geometry">
            <mxRectangle width="93" height="33" as="alternateBounds" />
          </mxGeometry>
        </mxCell>
        <mxCell id="JqO0ZnZ2Jt7lgx0bNs5c-6" value="" style="shape=tableRow;horizontal=0;startSize=0;swimlaneHead=0;swimlaneBody=0;top=0;left=0;bottom=0;right=0;dropTarget=0;collapsible=0;recursiveResize=0;expand=0;fontStyle=0;strokeColor=#0F8B8D;fillColor=#FAE5C7;labelBackgroundColor=none;fontColor=#143642;rounded=0;" parent="JqO0ZnZ2Jt7lgx0bNs5c-1" vertex="1">
          <mxGeometry y="33" width="373" height="20" as="geometry" />
        </mxCell>
        <mxCell id="JqO0ZnZ2Jt7lgx0bNs5c-7" value="begin;" style="connectable=0;recursiveResize=0;strokeColor=#82b366;fillColor=#d5e8d4;align=center;whiteSpace=wrap;html=1;labelBackgroundColor=none;rounded=0;" parent="JqO0ZnZ2Jt7lgx0bNs5c-6" vertex="1">
          <mxGeometry width="93" height="20" as="geometry">
            <mxRectangle width="93" height="20" as="alternateBounds" />
          </mxGeometry>
        </mxCell>
        <mxCell id="JqO0ZnZ2Jt7lgx0bNs5c-8" value="" style="connectable=0;recursiveResize=0;strokeColor=#0F8B8D;fillColor=#FAE5C7;align=center;whiteSpace=wrap;html=1;labelBackgroundColor=none;fontColor=#143642;rounded=0;" parent="JqO0ZnZ2Jt7lgx0bNs5c-6" vertex="1">
          <mxGeometry x="93" width="94" height="20" as="geometry">
            <mxRectangle width="94" height="20" as="alternateBounds" />
          </mxGeometry>
        </mxCell>
        <mxCell id="JqO0ZnZ2Jt7lgx0bNs5c-9" value="" style="connectable=0;recursiveResize=0;strokeColor=#0F8B8D;fillColor=#FAE5C7;align=center;whiteSpace=wrap;html=1;labelBackgroundColor=none;fontColor=#143642;rounded=0;" parent="JqO0ZnZ2Jt7lgx0bNs5c-6" vertex="1">
          <mxGeometry x="187" width="93" height="20" as="geometry">
            <mxRectangle width="93" height="20" as="alternateBounds" />
          </mxGeometry>
        </mxCell>
        <mxCell id="JqO0ZnZ2Jt7lgx0bNs5c-51" style="connectable=0;recursiveResize=0;strokeColor=#0F8B8D;fillColor=#FAE5C7;align=center;whiteSpace=wrap;html=1;labelBackgroundColor=none;fontColor=#143642;rounded=0;" parent="JqO0ZnZ2Jt7lgx0bNs5c-6" vertex="1">
          <mxGeometry x="280" width="93" height="20" as="geometry">
            <mxRectangle width="93" height="20" as="alternateBounds" />
          </mxGeometry>
        </mxCell>
        <mxCell id="JqO0ZnZ2Jt7lgx0bNs5c-10" value="" style="shape=tableRow;horizontal=0;startSize=0;swimlaneHead=0;swimlaneBody=0;top=0;left=0;bottom=0;right=0;dropTarget=0;collapsible=0;recursiveResize=0;expand=0;fontStyle=1;strokeColor=#0F8B8D;fillColor=#FAE5C7;labelBackgroundColor=none;fontColor=#143642;rounded=0;" parent="JqO0ZnZ2Jt7lgx0bNs5c-1" vertex="1">
          <mxGeometry y="53" width="373" height="31" as="geometry" />
        </mxCell>
        <mxCell id="JqO0ZnZ2Jt7lgx0bNs5c-11" value="select * &lt;br&gt;from t limit 1;" style="connectable=0;recursiveResize=0;strokeColor=#0F8B8D;fillColor=#FAE5C7;whiteSpace=wrap;html=1;labelBackgroundColor=none;fontColor=#143642;rounded=0;" parent="JqO0ZnZ2Jt7lgx0bNs5c-10" vertex="1">
          <mxGeometry width="93" height="31" as="geometry">
            <mxRectangle width="93" height="31" as="alternateBounds" />
          </mxGeometry>
        </mxCell>
        <mxCell id="JqO0ZnZ2Jt7lgx0bNs5c-12" value="" style="connectable=0;recursiveResize=0;strokeColor=#0F8B8D;fillColor=#FAE5C7;whiteSpace=wrap;html=1;labelBackgroundColor=none;fontColor=#143642;rounded=0;" parent="JqO0ZnZ2Jt7lgx0bNs5c-10" vertex="1">
          <mxGeometry x="93" width="94" height="31" as="geometry">
            <mxRectangle width="94" height="31" as="alternateBounds" />
          </mxGeometry>
        </mxCell>
        <mxCell id="JqO0ZnZ2Jt7lgx0bNs5c-13" value="" style="connectable=0;recursiveResize=0;strokeColor=#0F8B8D;fillColor=#FAE5C7;whiteSpace=wrap;html=1;labelBackgroundColor=none;fontColor=#143642;rounded=0;" parent="JqO0ZnZ2Jt7lgx0bNs5c-10" vertex="1">
          <mxGeometry x="187" width="93" height="31" as="geometry">
            <mxRectangle width="93" height="31" as="alternateBounds" />
          </mxGeometry>
        </mxCell>
        <mxCell id="JqO0ZnZ2Jt7lgx0bNs5c-52" style="connectable=0;recursiveResize=0;strokeColor=#0F8B8D;fillColor=#FAE5C7;whiteSpace=wrap;html=1;labelBackgroundColor=none;fontColor=#143642;rounded=0;" parent="JqO0ZnZ2Jt7lgx0bNs5c-10" vertex="1">
          <mxGeometry x="280" width="93" height="31" as="geometry">
            <mxRectangle width="93" height="31" as="alternateBounds" />
          </mxGeometry>
        </mxCell>
        <mxCell id="JqO0ZnZ2Jt7lgx0bNs5c-14" value="" style="shape=tableRow;horizontal=0;startSize=0;swimlaneHead=0;swimlaneBody=0;top=0;left=0;bottom=0;right=0;dropTarget=0;collapsible=0;recursiveResize=0;expand=0;fontStyle=0;strokeColor=#0F8B8D;fillColor=#FAE5C7;labelBackgroundColor=none;fontColor=#143642;rounded=0;" parent="JqO0ZnZ2Jt7lgx0bNs5c-1" vertex="1">
          <mxGeometry y="84" width="373" height="33" as="geometry" />
        </mxCell>
        <mxCell id="JqO0ZnZ2Jt7lgx0bNs5c-15" value="" style="connectable=0;recursiveResize=0;strokeColor=#0F8B8D;fillColor=#FAE5C7;fontStyle=0;align=center;whiteSpace=wrap;html=1;labelBackgroundColor=none;fontColor=#143642;rounded=0;" parent="JqO0ZnZ2Jt7lgx0bNs5c-14" vertex="1">
          <mxGeometry width="93" height="33" as="geometry">
            <mxRectangle width="93" height="33" as="alternateBounds" />
          </mxGeometry>
        </mxCell>
        <mxCell id="JqO0ZnZ2Jt7lgx0bNs5c-16" value="select *&lt;br style=&quot;border-color: var(--border-color);&quot;&gt;from t limit 1;" style="connectable=0;recursiveResize=0;strokeColor=#0F8B8D;fillColor=#FAE5C7;fontStyle=0;align=center;whiteSpace=wrap;html=1;labelBackgroundColor=none;fontColor=#143642;rounded=0;" parent="JqO0ZnZ2Jt7lgx0bNs5c-14" vertex="1">
          <mxGeometry x="93" width="94" height="33" as="geometry">
            <mxRectangle width="94" height="33" as="alternateBounds" />
          </mxGeometry>
        </mxCell>
        <mxCell id="JqO0ZnZ2Jt7lgx0bNs5c-17" value="" style="connectable=0;recursiveResize=0;strokeColor=#0F8B8D;fillColor=#FAE5C7;fontStyle=0;align=center;whiteSpace=wrap;html=1;labelBackgroundColor=none;fontColor=#143642;rounded=0;" parent="JqO0ZnZ2Jt7lgx0bNs5c-14" vertex="1">
          <mxGeometry x="187" width="93" height="33" as="geometry">
            <mxRectangle width="93" height="33" as="alternateBounds" />
          </mxGeometry>
        </mxCell>
        <mxCell id="JqO0ZnZ2Jt7lgx0bNs5c-53" style="connectable=0;recursiveResize=0;strokeColor=#0F8B8D;fillColor=#FAE5C7;fontStyle=0;align=center;whiteSpace=wrap;html=1;labelBackgroundColor=none;fontColor=#143642;rounded=0;" parent="JqO0ZnZ2Jt7lgx0bNs5c-14" vertex="1">
          <mxGeometry x="280" width="93" height="33" as="geometry">
            <mxRectangle width="93" height="33" as="alternateBounds" />
          </mxGeometry>
        </mxCell>
        <mxCell id="JqO0ZnZ2Jt7lgx0bNs5c-18" value="" style="shape=tableRow;horizontal=0;startSize=0;swimlaneHead=0;swimlaneBody=0;top=0;left=0;bottom=0;right=0;dropTarget=0;collapsible=0;recursiveResize=0;expand=0;fontStyle=1;strokeColor=#0F8B8D;fillColor=#FAE5C7;labelBackgroundColor=none;fontColor=#143642;rounded=0;" parent="JqO0ZnZ2Jt7lgx0bNs5c-1" vertex="1">
          <mxGeometry y="117" width="373" height="31" as="geometry" />
        </mxCell>
        <mxCell id="JqO0ZnZ2Jt7lgx0bNs5c-19" value="" style="connectable=0;recursiveResize=0;strokeColor=#0F8B8D;fillColor=#FAE5C7;whiteSpace=wrap;html=1;labelBackgroundColor=none;fontColor=#143642;rounded=0;" parent="JqO0ZnZ2Jt7lgx0bNs5c-18" vertex="1">
          <mxGeometry width="93" height="31" as="geometry">
            <mxRectangle width="93" height="31" as="alternateBounds" />
          </mxGeometry>
        </mxCell>
        <mxCell id="JqO0ZnZ2Jt7lgx0bNs5c-20" value="" style="connectable=0;recursiveResize=0;strokeColor=#0F8B8D;fillColor=#FAE5C7;whiteSpace=wrap;html=1;labelBackgroundColor=none;fontColor=#143642;rounded=0;" parent="JqO0ZnZ2Jt7lgx0bNs5c-18" vertex="1">
          <mxGeometry x="93" width="94" height="31" as="geometry">
            <mxRectangle width="94" height="31" as="alternateBounds" />
          </mxGeometry>
        </mxCell>
        <mxCell id="JqO0ZnZ2Jt7lgx0bNs5c-21" value="alter table t&lt;br&gt;add f int;" style="connectable=0;recursiveResize=0;strokeColor=#b85450;fillColor=#f8cecc;whiteSpace=wrap;html=1;labelBackgroundColor=none;rounded=0;" parent="JqO0ZnZ2Jt7lgx0bNs5c-18" vertex="1">
          <mxGeometry x="187" width="93" height="31" as="geometry">
            <mxRectangle width="93" height="31" as="alternateBounds" />
          </mxGeometry>
        </mxCell>
        <mxCell id="JqO0ZnZ2Jt7lgx0bNs5c-54" style="connectable=0;recursiveResize=0;strokeColor=#0F8B8D;fillColor=#FAE5C7;whiteSpace=wrap;html=1;labelBackgroundColor=none;fontColor=#143642;rounded=0;" parent="JqO0ZnZ2Jt7lgx0bNs5c-18" vertex="1">
          <mxGeometry x="280" width="93" height="31" as="geometry">
            <mxRectangle width="93" height="31" as="alternateBounds" />
          </mxGeometry>
        </mxCell>
        <mxCell id="JqO0ZnZ2Jt7lgx0bNs5c-65" style="shape=tableRow;horizontal=0;startSize=0;swimlaneHead=0;swimlaneBody=0;top=0;left=0;bottom=0;right=0;dropTarget=0;collapsible=0;recursiveResize=0;expand=0;fontStyle=1;strokeColor=#0F8B8D;fillColor=#FAE5C7;labelBackgroundColor=none;fontColor=#143642;rounded=0;" parent="JqO0ZnZ2Jt7lgx0bNs5c-1" vertex="1">
          <mxGeometry y="148" width="373" height="31" as="geometry" />
        </mxCell>
        <mxCell id="JqO0ZnZ2Jt7lgx0bNs5c-66" style="connectable=0;recursiveResize=0;strokeColor=#0F8B8D;fillColor=#FAE5C7;whiteSpace=wrap;html=1;labelBackgroundColor=none;fontColor=#143642;rounded=0;" parent="JqO0ZnZ2Jt7lgx0bNs5c-65" vertex="1">
          <mxGeometry width="93" height="31" as="geometry">
            <mxRectangle width="93" height="31" as="alternateBounds" />
          </mxGeometry>
        </mxCell>
        <mxCell id="JqO0ZnZ2Jt7lgx0bNs5c-67" style="connectable=0;recursiveResize=0;strokeColor=#0F8B8D;fillColor=#FAE5C7;whiteSpace=wrap;html=1;labelBackgroundColor=none;fontColor=#143642;rounded=0;" parent="JqO0ZnZ2Jt7lgx0bNs5c-65" vertex="1">
          <mxGeometry x="93" width="94" height="31" as="geometry">
            <mxRectangle width="94" height="31" as="alternateBounds" />
          </mxGeometry>
        </mxCell>
        <mxCell id="JqO0ZnZ2Jt7lgx0bNs5c-68" style="connectable=0;recursiveResize=0;strokeColor=#0F8B8D;fillColor=#FAE5C7;whiteSpace=wrap;html=1;labelBackgroundColor=none;fontColor=#143642;rounded=0;" parent="JqO0ZnZ2Jt7lgx0bNs5c-65" vertex="1">
          <mxGeometry x="187" width="93" height="31" as="geometry">
            <mxRectangle width="93" height="31" as="alternateBounds" />
          </mxGeometry>
        </mxCell>
        <mxCell id="JqO0ZnZ2Jt7lgx0bNs5c-69" value="select *&lt;br style=&quot;border-color: var(--border-color);&quot;&gt;from t limit 1;" style="connectable=0;recursiveResize=0;strokeColor=#b85450;fillColor=#f8cecc;whiteSpace=wrap;html=1;labelBackgroundColor=none;rounded=0;" parent="JqO0ZnZ2Jt7lgx0bNs5c-65" vertex="1">
          <mxGeometry x="280" width="93" height="31" as="geometry">
            <mxRectangle width="93" height="31" as="alternateBounds" />
          </mxGeometry>
        </mxCell>
        <mxCell id="I48Bp6tP5aasfKwCWKVA-1" style="shape=tableRow;horizontal=0;startSize=0;swimlaneHead=0;swimlaneBody=0;top=0;left=0;bottom=0;right=0;dropTarget=0;collapsible=0;recursiveResize=0;expand=0;fontStyle=1;strokeColor=#0F8B8D;fillColor=#FAE5C7;labelBackgroundColor=none;fontColor=#143642;rounded=0;" parent="JqO0ZnZ2Jt7lgx0bNs5c-1" vertex="1">
          <mxGeometry y="179" width="373" height="21" as="geometry" />
        </mxCell>
        <mxCell id="I48Bp6tP5aasfKwCWKVA-2" value="commit;" style="connectable=0;recursiveResize=0;strokeColor=#82b366;fillColor=#d5e8d4;whiteSpace=wrap;html=1;labelBackgroundColor=none;rounded=0;" parent="I48Bp6tP5aasfKwCWKVA-1" vertex="1">
          <mxGeometry width="93" height="21" as="geometry">
            <mxRectangle width="93" height="21" as="alternateBounds" />
          </mxGeometry>
        </mxCell>
        <mxCell id="I48Bp6tP5aasfKwCWKVA-3" style="connectable=0;recursiveResize=0;strokeColor=#0F8B8D;fillColor=#FAE5C7;whiteSpace=wrap;html=1;labelBackgroundColor=none;fontColor=#143642;rounded=0;" parent="I48Bp6tP5aasfKwCWKVA-1" vertex="1">
          <mxGeometry x="93" width="94" height="21" as="geometry">
            <mxRectangle width="94" height="21" as="alternateBounds" />
          </mxGeometry>
        </mxCell>
        <mxCell id="I48Bp6tP5aasfKwCWKVA-4" style="connectable=0;recursiveResize=0;strokeColor=#0F8B8D;fillColor=#FAE5C7;whiteSpace=wrap;html=1;labelBackgroundColor=none;fontColor=#143642;rounded=0;" parent="I48Bp6tP5aasfKwCWKVA-1" vertex="1">
          <mxGeometry x="187" width="93" height="21" as="geometry">
            <mxRectangle width="93" height="21" as="alternateBounds" />
          </mxGeometry>
        </mxCell>
        <mxCell id="I48Bp6tP5aasfKwCWKVA-5" value="" style="connectable=0;recursiveResize=0;strokeColor=#0F8B8D;fillColor=#FAE5C7;whiteSpace=wrap;html=1;labelBackgroundColor=none;rounded=0;fontColor=#143642;" parent="I48Bp6tP5aasfKwCWKVA-1" vertex="1">
          <mxGeometry x="280" width="93" height="21" as="geometry">
            <mxRectangle width="93" height="21" as="alternateBounds" />
          </mxGeometry>
        </mxCell>
      </root>
    </mxGraphModel>
  </diagram>
  <diagram id="I5LVUTv8qwJT6PNkf7-Q" name="第 2 页">
    <mxGraphModel dx="731" dy="759" grid="1" gridSize="10" guides="1" tooltips="1" connect="1" arrows="1" fold="1" page="1" pageScale="1" pageWidth="1654" pageHeight="1169" math="0" shadow="0">
      <root>
        <mxCell id="0" />
        <mxCell id="1" parent="0" />
        <mxCell id="I8hxaUvusRozfNYvWSky-1" value="A" style="shape=table;startSize=30;container=1;collapsible=0;childLayout=tableLayout;strokeColor=#0F8B8D;fontSize=16;labelBackgroundColor=none;fillColor=#FAE5C7;fontColor=#143642;" vertex="1" parent="1">
          <mxGeometry x="330" y="150" width="180" height="110" as="geometry" />
        </mxCell>
        <mxCell id="I8hxaUvusRozfNYvWSky-2" value="" style="shape=tableRow;horizontal=0;startSize=0;swimlaneHead=0;swimlaneBody=0;strokeColor=#0F8B8D;top=0;left=0;bottom=0;right=0;collapsible=0;dropTarget=0;fillColor=none;points=[[0,0.5],[1,0.5]];portConstraint=eastwest;fontSize=16;labelBackgroundColor=none;fontColor=#143642;" vertex="1" parent="I8hxaUvusRozfNYvWSky-1">
          <mxGeometry y="30" width="180" height="20" as="geometry" />
        </mxCell>
        <mxCell id="I8hxaUvusRozfNYvWSky-3" value="a" style="shape=partialRectangle;html=1;whiteSpace=wrap;connectable=0;strokeColor=#0F8B8D;overflow=hidden;fillColor=none;top=0;left=0;bottom=0;right=0;pointerEvents=1;fontSize=16;labelBackgroundColor=none;fontColor=#143642;" vertex="1" parent="I8hxaUvusRozfNYvWSky-2">
          <mxGeometry width="60" height="20" as="geometry">
            <mxRectangle width="60" height="20" as="alternateBounds" />
          </mxGeometry>
        </mxCell>
        <mxCell id="I8hxaUvusRozfNYvWSky-4" value="b" style="shape=partialRectangle;html=1;whiteSpace=wrap;connectable=0;strokeColor=#0F8B8D;overflow=hidden;fillColor=none;top=0;left=0;bottom=0;right=0;pointerEvents=1;fontSize=16;labelBackgroundColor=none;fontColor=#143642;" vertex="1" parent="I8hxaUvusRozfNYvWSky-2">
          <mxGeometry x="60" width="60" height="20" as="geometry">
            <mxRectangle width="60" height="20" as="alternateBounds" />
          </mxGeometry>
        </mxCell>
        <mxCell id="I8hxaUvusRozfNYvWSky-5" value="c" style="shape=partialRectangle;html=1;whiteSpace=wrap;connectable=0;strokeColor=#0F8B8D;overflow=hidden;fillColor=none;top=0;left=0;bottom=0;right=0;pointerEvents=1;fontSize=16;labelBackgroundColor=none;fontColor=#143642;" vertex="1" parent="I8hxaUvusRozfNYvWSky-2">
          <mxGeometry x="120" width="60" height="20" as="geometry">
            <mxRectangle width="60" height="20" as="alternateBounds" />
          </mxGeometry>
        </mxCell>
        <mxCell id="I8hxaUvusRozfNYvWSky-6" style="shape=tableRow;horizontal=0;startSize=0;swimlaneHead=0;swimlaneBody=0;strokeColor=#0F8B8D;top=0;left=0;bottom=0;right=0;collapsible=0;dropTarget=0;fillColor=none;points=[[0,0.5],[1,0.5]];portConstraint=eastwest;fontSize=16;labelBackgroundColor=none;fontColor=#143642;" vertex="1" parent="I8hxaUvusRozfNYvWSky-1">
          <mxGeometry y="50" width="180" height="30" as="geometry" />
        </mxCell>
        <mxCell id="I8hxaUvusRozfNYvWSky-7" value="R1" style="shape=partialRectangle;html=1;whiteSpace=wrap;connectable=0;strokeColor=#0F8B8D;overflow=hidden;fillColor=none;top=0;left=0;bottom=0;right=0;pointerEvents=1;fontSize=16;labelBackgroundColor=none;fontColor=#143642;" vertex="1" parent="I8hxaUvusRozfNYvWSky-6">
          <mxGeometry width="60" height="30" as="geometry">
            <mxRectangle width="60" height="30" as="alternateBounds" />
          </mxGeometry>
        </mxCell>
        <mxCell id="I8hxaUvusRozfNYvWSky-8" style="shape=partialRectangle;html=1;whiteSpace=wrap;connectable=0;strokeColor=#0F8B8D;overflow=hidden;fillColor=none;top=0;left=0;bottom=0;right=0;pointerEvents=1;fontSize=16;labelBackgroundColor=none;fontColor=#143642;" vertex="1" parent="I8hxaUvusRozfNYvWSky-6">
          <mxGeometry x="60" width="60" height="30" as="geometry">
            <mxRectangle width="60" height="30" as="alternateBounds" />
          </mxGeometry>
        </mxCell>
        <mxCell id="I8hxaUvusRozfNYvWSky-9" style="shape=partialRectangle;html=1;whiteSpace=wrap;connectable=0;strokeColor=#0F8B8D;overflow=hidden;fillColor=none;top=0;left=0;bottom=0;right=0;pointerEvents=1;fontSize=16;labelBackgroundColor=none;fontColor=#143642;" vertex="1" parent="I8hxaUvusRozfNYvWSky-6">
          <mxGeometry x="120" width="60" height="30" as="geometry">
            <mxRectangle width="60" height="30" as="alternateBounds" />
          </mxGeometry>
        </mxCell>
        <mxCell id="I8hxaUvusRozfNYvWSky-10" style="shape=tableRow;horizontal=0;startSize=0;swimlaneHead=0;swimlaneBody=0;strokeColor=#0F8B8D;top=0;left=0;bottom=0;right=0;collapsible=0;dropTarget=0;fillColor=none;points=[[0,0.5],[1,0.5]];portConstraint=eastwest;fontSize=16;labelBackgroundColor=none;fontColor=#143642;" vertex="1" parent="I8hxaUvusRozfNYvWSky-1">
          <mxGeometry y="80" width="180" height="30" as="geometry" />
        </mxCell>
        <mxCell id="I8hxaUvusRozfNYvWSky-11" value="R2" style="shape=partialRectangle;html=1;whiteSpace=wrap;connectable=0;strokeColor=#0F8B8D;overflow=hidden;fillColor=none;top=0;left=0;bottom=0;right=0;pointerEvents=1;fontSize=16;labelBackgroundColor=none;fontColor=#143642;" vertex="1" parent="I8hxaUvusRozfNYvWSky-10">
          <mxGeometry width="60" height="30" as="geometry">
            <mxRectangle width="60" height="30" as="alternateBounds" />
          </mxGeometry>
        </mxCell>
        <mxCell id="I8hxaUvusRozfNYvWSky-12" style="shape=partialRectangle;html=1;whiteSpace=wrap;connectable=0;strokeColor=#0F8B8D;overflow=hidden;fillColor=none;top=0;left=0;bottom=0;right=0;pointerEvents=1;fontSize=16;labelBackgroundColor=none;fontColor=#143642;" vertex="1" parent="I8hxaUvusRozfNYvWSky-10">
          <mxGeometry x="60" width="60" height="30" as="geometry">
            <mxRectangle width="60" height="30" as="alternateBounds" />
          </mxGeometry>
        </mxCell>
        <mxCell id="I8hxaUvusRozfNYvWSky-13" style="shape=partialRectangle;html=1;whiteSpace=wrap;connectable=0;strokeColor=#0F8B8D;overflow=hidden;fillColor=none;top=0;left=0;bottom=0;right=0;pointerEvents=1;fontSize=16;labelBackgroundColor=none;fontColor=#143642;" vertex="1" parent="I8hxaUvusRozfNYvWSky-10">
          <mxGeometry x="120" width="60" height="30" as="geometry">
            <mxRectangle width="60" height="30" as="alternateBounds" />
          </mxGeometry>
        </mxCell>
        <mxCell id="I8hxaUvusRozfNYvWSky-14" value="" style="shape=flexArrow;endArrow=classic;html=1;rounded=0;strokeColor=#A8201A;fontColor=#143642;fillColor=#FAE5C7;entryX=0.5;entryY=0;entryDx=0;entryDy=0;" edge="1" parent="1">
          <mxGeometry width="50" height="50" relative="1" as="geometry">
            <mxPoint x="410" y="280" as="sourcePoint" />
            <mxPoint x="410" y="330" as="targetPoint" />
          </mxGeometry>
        </mxCell>
        <mxCell id="I8hxaUvusRozfNYvWSky-15" value="" style="shape=flexArrow;endArrow=classic;html=1;rounded=0;strokeColor=#A8201A;fontColor=#143642;fillColor=#FAE5C7;entryX=0.5;entryY=0;entryDx=0;entryDy=0;" edge="1" parent="1">
          <mxGeometry width="50" height="50" relative="1" as="geometry">
            <mxPoint x="410" y="610" as="sourcePoint" />
            <mxPoint x="410" y="660" as="targetPoint" />
          </mxGeometry>
        </mxCell>
        <mxCell id="I8hxaUvusRozfNYvWSky-16" value="A" style="shape=table;startSize=30;container=1;collapsible=0;childLayout=tableLayout;strokeColor=#0F8B8D;fontSize=16;labelBackgroundColor=none;fillColor=#FAE5C7;fontColor=#143642;" vertex="1" parent="1">
          <mxGeometry x="200" y="340" width="180" height="110" as="geometry" />
        </mxCell>
        <mxCell id="I8hxaUvusRozfNYvWSky-17" value="" style="shape=tableRow;horizontal=0;startSize=0;swimlaneHead=0;swimlaneBody=0;strokeColor=#0F8B8D;top=0;left=0;bottom=0;right=0;collapsible=0;dropTarget=0;fillColor=none;points=[[0,0.5],[1,0.5]];portConstraint=eastwest;fontSize=16;labelBackgroundColor=none;fontColor=#143642;" vertex="1" parent="I8hxaUvusRozfNYvWSky-16">
          <mxGeometry y="30" width="180" height="20" as="geometry" />
        </mxCell>
        <mxCell id="I8hxaUvusRozfNYvWSky-18" value="a" style="shape=partialRectangle;html=1;whiteSpace=wrap;connectable=0;strokeColor=#0F8B8D;overflow=hidden;fillColor=none;top=0;left=0;bottom=0;right=0;pointerEvents=1;fontSize=16;labelBackgroundColor=none;fontColor=#143642;" vertex="1" parent="I8hxaUvusRozfNYvWSky-17">
          <mxGeometry width="60" height="20" as="geometry">
            <mxRectangle width="60" height="20" as="alternateBounds" />
          </mxGeometry>
        </mxCell>
        <mxCell id="I8hxaUvusRozfNYvWSky-19" value="b" style="shape=partialRectangle;html=1;whiteSpace=wrap;connectable=0;strokeColor=#0F8B8D;overflow=hidden;fillColor=none;top=0;left=0;bottom=0;right=0;pointerEvents=1;fontSize=16;labelBackgroundColor=none;fontColor=#143642;" vertex="1" parent="I8hxaUvusRozfNYvWSky-17">
          <mxGeometry x="60" width="60" height="20" as="geometry">
            <mxRectangle width="60" height="20" as="alternateBounds" />
          </mxGeometry>
        </mxCell>
        <mxCell id="I8hxaUvusRozfNYvWSky-20" value="c" style="shape=partialRectangle;html=1;whiteSpace=wrap;connectable=0;strokeColor=#0F8B8D;overflow=hidden;fillColor=none;top=0;left=0;bottom=0;right=0;pointerEvents=1;fontSize=16;labelBackgroundColor=none;fontColor=#143642;" vertex="1" parent="I8hxaUvusRozfNYvWSky-17">
          <mxGeometry x="120" width="60" height="20" as="geometry">
            <mxRectangle width="60" height="20" as="alternateBounds" />
          </mxGeometry>
        </mxCell>
        <mxCell id="I8hxaUvusRozfNYvWSky-21" style="shape=tableRow;horizontal=0;startSize=0;swimlaneHead=0;swimlaneBody=0;strokeColor=#0F8B8D;top=0;left=0;bottom=0;right=0;collapsible=0;dropTarget=0;fillColor=none;points=[[0,0.5],[1,0.5]];portConstraint=eastwest;fontSize=16;labelBackgroundColor=none;fontColor=#143642;" vertex="1" parent="I8hxaUvusRozfNYvWSky-16">
          <mxGeometry y="50" width="180" height="30" as="geometry" />
        </mxCell>
        <mxCell id="I8hxaUvusRozfNYvWSky-22" value="R1" style="shape=partialRectangle;html=1;whiteSpace=wrap;connectable=0;strokeColor=#0F8B8D;overflow=hidden;fillColor=none;top=0;left=0;bottom=0;right=0;pointerEvents=1;fontSize=16;labelBackgroundColor=none;fontColor=#143642;" vertex="1" parent="I8hxaUvusRozfNYvWSky-21">
          <mxGeometry width="60" height="30" as="geometry">
            <mxRectangle width="60" height="30" as="alternateBounds" />
          </mxGeometry>
        </mxCell>
        <mxCell id="I8hxaUvusRozfNYvWSky-23" style="shape=partialRectangle;html=1;whiteSpace=wrap;connectable=0;strokeColor=#0F8B8D;overflow=hidden;fillColor=none;top=0;left=0;bottom=0;right=0;pointerEvents=1;fontSize=16;labelBackgroundColor=none;fontColor=#143642;" vertex="1" parent="I8hxaUvusRozfNYvWSky-21">
          <mxGeometry x="60" width="60" height="30" as="geometry">
            <mxRectangle width="60" height="30" as="alternateBounds" />
          </mxGeometry>
        </mxCell>
        <mxCell id="I8hxaUvusRozfNYvWSky-24" style="shape=partialRectangle;html=1;whiteSpace=wrap;connectable=0;strokeColor=#0F8B8D;overflow=hidden;fillColor=none;top=0;left=0;bottom=0;right=0;pointerEvents=1;fontSize=16;labelBackgroundColor=none;fontColor=#143642;" vertex="1" parent="I8hxaUvusRozfNYvWSky-21">
          <mxGeometry x="120" width="60" height="30" as="geometry">
            <mxRectangle width="60" height="30" as="alternateBounds" />
          </mxGeometry>
        </mxCell>
        <mxCell id="I8hxaUvusRozfNYvWSky-25" style="shape=tableRow;horizontal=0;startSize=0;swimlaneHead=0;swimlaneBody=0;strokeColor=#0F8B8D;top=0;left=0;bottom=0;right=0;collapsible=0;dropTarget=0;fillColor=none;points=[[0,0.5],[1,0.5]];portConstraint=eastwest;fontSize=16;labelBackgroundColor=none;fontColor=#143642;" vertex="1" parent="I8hxaUvusRozfNYvWSky-16">
          <mxGeometry y="80" width="180" height="30" as="geometry" />
        </mxCell>
        <mxCell id="I8hxaUvusRozfNYvWSky-26" value="R2" style="shape=partialRectangle;html=1;whiteSpace=wrap;connectable=0;strokeColor=#0F8B8D;overflow=hidden;fillColor=none;top=0;left=0;bottom=0;right=0;pointerEvents=1;fontSize=16;labelBackgroundColor=none;fontColor=#143642;" vertex="1" parent="I8hxaUvusRozfNYvWSky-25">
          <mxGeometry width="60" height="30" as="geometry">
            <mxRectangle width="60" height="30" as="alternateBounds" />
          </mxGeometry>
        </mxCell>
        <mxCell id="I8hxaUvusRozfNYvWSky-27" style="shape=partialRectangle;html=1;whiteSpace=wrap;connectable=0;strokeColor=#0F8B8D;overflow=hidden;fillColor=none;top=0;left=0;bottom=0;right=0;pointerEvents=1;fontSize=16;labelBackgroundColor=none;fontColor=#143642;" vertex="1" parent="I8hxaUvusRozfNYvWSky-25">
          <mxGeometry x="60" width="60" height="30" as="geometry">
            <mxRectangle width="60" height="30" as="alternateBounds" />
          </mxGeometry>
        </mxCell>
        <mxCell id="I8hxaUvusRozfNYvWSky-28" style="shape=partialRectangle;html=1;whiteSpace=wrap;connectable=0;strokeColor=#0F8B8D;overflow=hidden;fillColor=none;top=0;left=0;bottom=0;right=0;pointerEvents=1;fontSize=16;labelBackgroundColor=none;fontColor=#143642;" vertex="1" parent="I8hxaUvusRozfNYvWSky-25">
          <mxGeometry x="120" width="60" height="30" as="geometry">
            <mxRectangle width="60" height="30" as="alternateBounds" />
          </mxGeometry>
        </mxCell>
        <mxCell id="I8hxaUvusRozfNYvWSky-29" value="B" style="shape=table;startSize=30;container=1;collapsible=0;childLayout=tableLayout;strokeColor=#0F8B8D;fontSize=16;labelBackgroundColor=none;fillColor=#FAE5C7;fontColor=#143642;" vertex="1" parent="1">
          <mxGeometry x="440" y="340" width="240" height="50" as="geometry" />
        </mxCell>
        <mxCell id="I8hxaUvusRozfNYvWSky-30" value="" style="shape=tableRow;horizontal=0;startSize=0;swimlaneHead=0;swimlaneBody=0;strokeColor=#0F8B8D;top=0;left=0;bottom=0;right=0;collapsible=0;dropTarget=0;fillColor=none;points=[[0,0.5],[1,0.5]];portConstraint=eastwest;fontSize=16;labelBackgroundColor=none;fontColor=#143642;" vertex="1" parent="I8hxaUvusRozfNYvWSky-29">
          <mxGeometry y="30" width="240" height="20" as="geometry" />
        </mxCell>
        <mxCell id="I8hxaUvusRozfNYvWSky-31" value="a" style="shape=partialRectangle;html=1;whiteSpace=wrap;connectable=0;strokeColor=#0F8B8D;overflow=hidden;fillColor=none;top=0;left=0;bottom=0;right=0;pointerEvents=1;fontSize=16;labelBackgroundColor=none;fontColor=#143642;" vertex="1" parent="I8hxaUvusRozfNYvWSky-30">
          <mxGeometry width="60" height="20" as="geometry">
            <mxRectangle width="60" height="20" as="alternateBounds" />
          </mxGeometry>
        </mxCell>
        <mxCell id="I8hxaUvusRozfNYvWSky-32" value="b" style="shape=partialRectangle;html=1;whiteSpace=wrap;connectable=0;strokeColor=#0F8B8D;overflow=hidden;fillColor=none;top=0;left=0;bottom=0;right=0;pointerEvents=1;fontSize=16;labelBackgroundColor=none;fontColor=#143642;" vertex="1" parent="I8hxaUvusRozfNYvWSky-30">
          <mxGeometry x="60" width="60" height="20" as="geometry">
            <mxRectangle width="60" height="20" as="alternateBounds" />
          </mxGeometry>
        </mxCell>
        <mxCell id="I8hxaUvusRozfNYvWSky-33" value="c" style="shape=partialRectangle;html=1;whiteSpace=wrap;connectable=0;strokeColor=#0F8B8D;overflow=hidden;fillColor=none;top=0;left=0;bottom=0;right=0;pointerEvents=1;fontSize=16;labelBackgroundColor=none;fontColor=#143642;" vertex="1" parent="I8hxaUvusRozfNYvWSky-30">
          <mxGeometry x="120" width="60" height="20" as="geometry">
            <mxRectangle width="60" height="20" as="alternateBounds" />
          </mxGeometry>
        </mxCell>
        <mxCell id="I8hxaUvusRozfNYvWSky-34" value="d" style="shape=partialRectangle;html=1;whiteSpace=wrap;connectable=0;strokeColor=#82b366;overflow=hidden;fillColor=#d5e8d4;top=0;left=0;bottom=0;right=0;pointerEvents=1;fontSize=16;labelBackgroundColor=none;" vertex="1" parent="I8hxaUvusRozfNYvWSky-30">
          <mxGeometry x="180" width="60" height="20" as="geometry">
            <mxRectangle width="60" height="20" as="alternateBounds" />
          </mxGeometry>
        </mxCell>
        <mxCell id="I8hxaUvusRozfNYvWSky-35" value="A" style="shape=table;startSize=30;container=1;collapsible=0;childLayout=tableLayout;strokeColor=#0F8B8D;fontSize=16;labelBackgroundColor=none;fillColor=#FAE5C7;fontColor=#143642;" vertex="1" parent="1">
          <mxGeometry x="200" y="485" width="180" height="110" as="geometry" />
        </mxCell>
        <mxCell id="I8hxaUvusRozfNYvWSky-36" value="" style="shape=tableRow;horizontal=0;startSize=0;swimlaneHead=0;swimlaneBody=0;strokeColor=#0F8B8D;top=0;left=0;bottom=0;right=0;collapsible=0;dropTarget=0;fillColor=none;points=[[0,0.5],[1,0.5]];portConstraint=eastwest;fontSize=16;labelBackgroundColor=none;fontColor=#143642;" vertex="1" parent="I8hxaUvusRozfNYvWSky-35">
          <mxGeometry y="30" width="180" height="20" as="geometry" />
        </mxCell>
        <mxCell id="I8hxaUvusRozfNYvWSky-37" value="a" style="shape=partialRectangle;html=1;whiteSpace=wrap;connectable=0;strokeColor=#0F8B8D;overflow=hidden;fillColor=none;top=0;left=0;bottom=0;right=0;pointerEvents=1;fontSize=16;labelBackgroundColor=none;fontColor=#143642;" vertex="1" parent="I8hxaUvusRozfNYvWSky-36">
          <mxGeometry width="60" height="20" as="geometry">
            <mxRectangle width="60" height="20" as="alternateBounds" />
          </mxGeometry>
        </mxCell>
        <mxCell id="I8hxaUvusRozfNYvWSky-38" value="b" style="shape=partialRectangle;html=1;whiteSpace=wrap;connectable=0;strokeColor=#0F8B8D;overflow=hidden;fillColor=none;top=0;left=0;bottom=0;right=0;pointerEvents=1;fontSize=16;labelBackgroundColor=none;fontColor=#143642;" vertex="1" parent="I8hxaUvusRozfNYvWSky-36">
          <mxGeometry x="60" width="60" height="20" as="geometry">
            <mxRectangle width="60" height="20" as="alternateBounds" />
          </mxGeometry>
        </mxCell>
        <mxCell id="I8hxaUvusRozfNYvWSky-39" value="c" style="shape=partialRectangle;html=1;whiteSpace=wrap;connectable=0;strokeColor=#0F8B8D;overflow=hidden;fillColor=none;top=0;left=0;bottom=0;right=0;pointerEvents=1;fontSize=16;labelBackgroundColor=none;fontColor=#143642;" vertex="1" parent="I8hxaUvusRozfNYvWSky-36">
          <mxGeometry x="120" width="60" height="20" as="geometry">
            <mxRectangle width="60" height="20" as="alternateBounds" />
          </mxGeometry>
        </mxCell>
        <mxCell id="I8hxaUvusRozfNYvWSky-40" style="shape=tableRow;horizontal=0;startSize=0;swimlaneHead=0;swimlaneBody=0;strokeColor=#0F8B8D;top=0;left=0;bottom=0;right=0;collapsible=0;dropTarget=0;fillColor=none;points=[[0,0.5],[1,0.5]];portConstraint=eastwest;fontSize=16;labelBackgroundColor=none;fontColor=#143642;" vertex="1" parent="I8hxaUvusRozfNYvWSky-35">
          <mxGeometry y="50" width="180" height="30" as="geometry" />
        </mxCell>
        <mxCell id="I8hxaUvusRozfNYvWSky-41" value="R1" style="shape=partialRectangle;html=1;whiteSpace=wrap;connectable=0;strokeColor=#0F8B8D;overflow=hidden;fillColor=none;top=0;left=0;bottom=0;right=0;pointerEvents=1;fontSize=16;labelBackgroundColor=none;fontColor=#143642;" vertex="1" parent="I8hxaUvusRozfNYvWSky-40">
          <mxGeometry width="60" height="30" as="geometry">
            <mxRectangle width="60" height="30" as="alternateBounds" />
          </mxGeometry>
        </mxCell>
        <mxCell id="I8hxaUvusRozfNYvWSky-42" style="shape=partialRectangle;html=1;whiteSpace=wrap;connectable=0;strokeColor=#0F8B8D;overflow=hidden;fillColor=none;top=0;left=0;bottom=0;right=0;pointerEvents=1;fontSize=16;labelBackgroundColor=none;fontColor=#143642;" vertex="1" parent="I8hxaUvusRozfNYvWSky-40">
          <mxGeometry x="60" width="60" height="30" as="geometry">
            <mxRectangle width="60" height="30" as="alternateBounds" />
          </mxGeometry>
        </mxCell>
        <mxCell id="I8hxaUvusRozfNYvWSky-43" style="shape=partialRectangle;html=1;whiteSpace=wrap;connectable=0;strokeColor=#0F8B8D;overflow=hidden;fillColor=none;top=0;left=0;bottom=0;right=0;pointerEvents=1;fontSize=16;labelBackgroundColor=none;fontColor=#143642;" vertex="1" parent="I8hxaUvusRozfNYvWSky-40">
          <mxGeometry x="120" width="60" height="30" as="geometry">
            <mxRectangle width="60" height="30" as="alternateBounds" />
          </mxGeometry>
        </mxCell>
        <mxCell id="I8hxaUvusRozfNYvWSky-44" style="shape=tableRow;horizontal=0;startSize=0;swimlaneHead=0;swimlaneBody=0;strokeColor=#0F8B8D;top=0;left=0;bottom=0;right=0;collapsible=0;dropTarget=0;fillColor=none;points=[[0,0.5],[1,0.5]];portConstraint=eastwest;fontSize=16;labelBackgroundColor=none;fontColor=#143642;" vertex="1" parent="I8hxaUvusRozfNYvWSky-35">
          <mxGeometry y="80" width="180" height="30" as="geometry" />
        </mxCell>
        <mxCell id="I8hxaUvusRozfNYvWSky-45" value="R2" style="shape=partialRectangle;html=1;whiteSpace=wrap;connectable=0;strokeColor=#0F8B8D;overflow=hidden;fillColor=none;top=0;left=0;bottom=0;right=0;pointerEvents=1;fontSize=16;labelBackgroundColor=none;fontColor=#143642;" vertex="1" parent="I8hxaUvusRozfNYvWSky-44">
          <mxGeometry width="60" height="30" as="geometry">
            <mxRectangle width="60" height="30" as="alternateBounds" />
          </mxGeometry>
        </mxCell>
        <mxCell id="I8hxaUvusRozfNYvWSky-46" style="shape=partialRectangle;html=1;whiteSpace=wrap;connectable=0;strokeColor=#0F8B8D;overflow=hidden;fillColor=none;top=0;left=0;bottom=0;right=0;pointerEvents=1;fontSize=16;labelBackgroundColor=none;fontColor=#143642;" vertex="1" parent="I8hxaUvusRozfNYvWSky-44">
          <mxGeometry x="60" width="60" height="30" as="geometry">
            <mxRectangle width="60" height="30" as="alternateBounds" />
          </mxGeometry>
        </mxCell>
        <mxCell id="I8hxaUvusRozfNYvWSky-47" style="shape=partialRectangle;html=1;whiteSpace=wrap;connectable=0;strokeColor=#0F8B8D;overflow=hidden;fillColor=none;top=0;left=0;bottom=0;right=0;pointerEvents=1;fontSize=16;labelBackgroundColor=none;fontColor=#143642;" vertex="1" parent="I8hxaUvusRozfNYvWSky-44">
          <mxGeometry x="120" width="60" height="30" as="geometry">
            <mxRectangle width="60" height="30" as="alternateBounds" />
          </mxGeometry>
        </mxCell>
        <mxCell id="I8hxaUvusRozfNYvWSky-48" value="B" style="shape=table;startSize=30;container=1;collapsible=0;childLayout=tableLayout;strokeColor=#0F8B8D;fontSize=16;labelBackgroundColor=none;fillColor=#FAE5C7;fontColor=#143642;" vertex="1" parent="1">
          <mxGeometry x="440" y="485" width="240" height="110" as="geometry" />
        </mxCell>
        <mxCell id="I8hxaUvusRozfNYvWSky-49" value="" style="shape=tableRow;horizontal=0;startSize=0;swimlaneHead=0;swimlaneBody=0;strokeColor=#0F8B8D;top=0;left=0;bottom=0;right=0;collapsible=0;dropTarget=0;fillColor=none;points=[[0,0.5],[1,0.5]];portConstraint=eastwest;fontSize=16;labelBackgroundColor=none;fontColor=#143642;" vertex="1" parent="I8hxaUvusRozfNYvWSky-48">
          <mxGeometry y="30" width="240" height="20" as="geometry" />
        </mxCell>
        <mxCell id="I8hxaUvusRozfNYvWSky-50" value="a" style="shape=partialRectangle;html=1;whiteSpace=wrap;connectable=0;strokeColor=#0F8B8D;overflow=hidden;fillColor=none;top=0;left=0;bottom=0;right=0;pointerEvents=1;fontSize=16;labelBackgroundColor=none;fontColor=#143642;" vertex="1" parent="I8hxaUvusRozfNYvWSky-49">
          <mxGeometry width="60" height="20" as="geometry">
            <mxRectangle width="60" height="20" as="alternateBounds" />
          </mxGeometry>
        </mxCell>
        <mxCell id="I8hxaUvusRozfNYvWSky-51" value="b" style="shape=partialRectangle;html=1;whiteSpace=wrap;connectable=0;strokeColor=#0F8B8D;overflow=hidden;fillColor=none;top=0;left=0;bottom=0;right=0;pointerEvents=1;fontSize=16;labelBackgroundColor=none;fontColor=#143642;" vertex="1" parent="I8hxaUvusRozfNYvWSky-49">
          <mxGeometry x="60" width="60" height="20" as="geometry">
            <mxRectangle width="60" height="20" as="alternateBounds" />
          </mxGeometry>
        </mxCell>
        <mxCell id="I8hxaUvusRozfNYvWSky-52" value="c" style="shape=partialRectangle;html=1;whiteSpace=wrap;connectable=0;strokeColor=#0F8B8D;overflow=hidden;fillColor=none;top=0;left=0;bottom=0;right=0;pointerEvents=1;fontSize=16;labelBackgroundColor=none;fontColor=#143642;" vertex="1" parent="I8hxaUvusRozfNYvWSky-49">
          <mxGeometry x="120" width="60" height="20" as="geometry">
            <mxRectangle width="60" height="20" as="alternateBounds" />
          </mxGeometry>
        </mxCell>
        <mxCell id="I8hxaUvusRozfNYvWSky-53" value="d" style="shape=partialRectangle;html=1;whiteSpace=wrap;connectable=0;strokeColor=#0F8B8D;overflow=hidden;fillColor=none;top=0;left=0;bottom=0;right=0;pointerEvents=1;fontSize=16;labelBackgroundColor=none;fontColor=#143642;" vertex="1" parent="I8hxaUvusRozfNYvWSky-49">
          <mxGeometry x="180" width="60" height="20" as="geometry">
            <mxRectangle width="60" height="20" as="alternateBounds" />
          </mxGeometry>
        </mxCell>
        <mxCell id="I8hxaUvusRozfNYvWSky-54" style="shape=tableRow;horizontal=0;startSize=0;swimlaneHead=0;swimlaneBody=0;strokeColor=#0F8B8D;top=0;left=0;bottom=0;right=0;collapsible=0;dropTarget=0;fillColor=none;points=[[0,0.5],[1,0.5]];portConstraint=eastwest;fontSize=16;labelBackgroundColor=none;fontColor=#143642;" vertex="1" parent="I8hxaUvusRozfNYvWSky-48">
          <mxGeometry y="50" width="240" height="30" as="geometry" />
        </mxCell>
        <mxCell id="I8hxaUvusRozfNYvWSky-55" value="R1" style="shape=partialRectangle;html=1;whiteSpace=wrap;connectable=0;strokeColor=#0F8B8D;overflow=hidden;fillColor=none;top=0;left=0;bottom=0;right=0;pointerEvents=1;fontSize=16;labelBackgroundColor=none;fontColor=#143642;" vertex="1" parent="I8hxaUvusRozfNYvWSky-54">
          <mxGeometry width="60" height="30" as="geometry">
            <mxRectangle width="60" height="30" as="alternateBounds" />
          </mxGeometry>
        </mxCell>
        <mxCell id="I8hxaUvusRozfNYvWSky-56" style="shape=partialRectangle;html=1;whiteSpace=wrap;connectable=0;strokeColor=#0F8B8D;overflow=hidden;fillColor=none;top=0;left=0;bottom=0;right=0;pointerEvents=1;fontSize=16;labelBackgroundColor=none;fontColor=#143642;" vertex="1" parent="I8hxaUvusRozfNYvWSky-54">
          <mxGeometry x="60" width="60" height="30" as="geometry">
            <mxRectangle width="60" height="30" as="alternateBounds" />
          </mxGeometry>
        </mxCell>
        <mxCell id="I8hxaUvusRozfNYvWSky-57" style="shape=partialRectangle;html=1;whiteSpace=wrap;connectable=0;strokeColor=#0F8B8D;overflow=hidden;fillColor=none;top=0;left=0;bottom=0;right=0;pointerEvents=1;fontSize=16;labelBackgroundColor=none;fontColor=#143642;" vertex="1" parent="I8hxaUvusRozfNYvWSky-54">
          <mxGeometry x="120" width="60" height="30" as="geometry">
            <mxRectangle width="60" height="30" as="alternateBounds" />
          </mxGeometry>
        </mxCell>
        <mxCell id="I8hxaUvusRozfNYvWSky-58" style="shape=partialRectangle;html=1;whiteSpace=wrap;connectable=0;strokeColor=#0F8B8D;overflow=hidden;fillColor=none;top=0;left=0;bottom=0;right=0;pointerEvents=1;fontSize=16;labelBackgroundColor=none;fontColor=#143642;" vertex="1" parent="I8hxaUvusRozfNYvWSky-54">
          <mxGeometry x="180" width="60" height="30" as="geometry">
            <mxRectangle width="60" height="30" as="alternateBounds" />
          </mxGeometry>
        </mxCell>
        <mxCell id="I8hxaUvusRozfNYvWSky-59" style="shape=tableRow;horizontal=0;startSize=0;swimlaneHead=0;swimlaneBody=0;strokeColor=#0F8B8D;top=0;left=0;bottom=0;right=0;collapsible=0;dropTarget=0;fillColor=none;points=[[0,0.5],[1,0.5]];portConstraint=eastwest;fontSize=16;labelBackgroundColor=none;fontColor=#143642;" vertex="1" parent="I8hxaUvusRozfNYvWSky-48">
          <mxGeometry y="80" width="240" height="30" as="geometry" />
        </mxCell>
        <mxCell id="I8hxaUvusRozfNYvWSky-60" value="R2" style="shape=partialRectangle;html=1;whiteSpace=wrap;connectable=0;strokeColor=#0F8B8D;overflow=hidden;fillColor=none;top=0;left=0;bottom=0;right=0;pointerEvents=1;fontSize=16;labelBackgroundColor=none;fontColor=#143642;" vertex="1" parent="I8hxaUvusRozfNYvWSky-59">
          <mxGeometry width="60" height="30" as="geometry">
            <mxRectangle width="60" height="30" as="alternateBounds" />
          </mxGeometry>
        </mxCell>
        <mxCell id="I8hxaUvusRozfNYvWSky-61" style="shape=partialRectangle;html=1;whiteSpace=wrap;connectable=0;strokeColor=#0F8B8D;overflow=hidden;fillColor=none;top=0;left=0;bottom=0;right=0;pointerEvents=1;fontSize=16;labelBackgroundColor=none;fontColor=#143642;" vertex="1" parent="I8hxaUvusRozfNYvWSky-59">
          <mxGeometry x="60" width="60" height="30" as="geometry">
            <mxRectangle width="60" height="30" as="alternateBounds" />
          </mxGeometry>
        </mxCell>
        <mxCell id="I8hxaUvusRozfNYvWSky-62" style="shape=partialRectangle;html=1;whiteSpace=wrap;connectable=0;strokeColor=#0F8B8D;overflow=hidden;fillColor=none;top=0;left=0;bottom=0;right=0;pointerEvents=1;fontSize=16;labelBackgroundColor=none;fontColor=#143642;" vertex="1" parent="I8hxaUvusRozfNYvWSky-59">
          <mxGeometry x="120" width="60" height="30" as="geometry">
            <mxRectangle width="60" height="30" as="alternateBounds" />
          </mxGeometry>
        </mxCell>
        <mxCell id="I8hxaUvusRozfNYvWSky-63" style="shape=partialRectangle;html=1;whiteSpace=wrap;connectable=0;strokeColor=#0F8B8D;overflow=hidden;fillColor=none;top=0;left=0;bottom=0;right=0;pointerEvents=1;fontSize=16;labelBackgroundColor=none;fontColor=#143642;" vertex="1" parent="I8hxaUvusRozfNYvWSky-59">
          <mxGeometry x="180" width="60" height="30" as="geometry">
            <mxRectangle width="60" height="30" as="alternateBounds" />
          </mxGeometry>
        </mxCell>
        <mxCell id="I8hxaUvusRozfNYvWSky-64" value="" style="endArrow=classic;html=1;rounded=0;strokeColor=#A8201A;fontColor=#143642;fillColor=#FAE5C7;" edge="1" parent="1">
          <mxGeometry width="50" height="50" relative="1" as="geometry">
            <mxPoint x="390" y="540" as="sourcePoint" />
            <mxPoint x="430" y="540" as="targetPoint" />
          </mxGeometry>
        </mxCell>
        <mxCell id="I8hxaUvusRozfNYvWSky-65" value="A" style="shape=table;startSize=30;container=1;collapsible=0;childLayout=tableLayout;strokeColor=#0F8B8D;fontSize=16;labelBackgroundColor=none;fillColor=#FAE5C7;fontColor=#CCCCCC;dashed=1;" vertex="1" parent="1">
          <mxGeometry x="200" y="670" width="180" height="110" as="geometry" />
        </mxCell>
        <mxCell id="I8hxaUvusRozfNYvWSky-66" value="" style="shape=tableRow;horizontal=0;startSize=0;swimlaneHead=0;swimlaneBody=0;strokeColor=#0F8B8D;top=0;left=0;bottom=0;right=0;collapsible=0;dropTarget=0;fillColor=none;points=[[0,0.5],[1,0.5]];portConstraint=eastwest;fontSize=16;labelBackgroundColor=none;fontColor=#143642;" vertex="1" parent="I8hxaUvusRozfNYvWSky-65">
          <mxGeometry y="30" width="180" height="20" as="geometry" />
        </mxCell>
        <mxCell id="I8hxaUvusRozfNYvWSky-67" value="a" style="shape=partialRectangle;html=1;whiteSpace=wrap;connectable=0;strokeColor=#0F8B8D;overflow=hidden;fillColor=none;top=0;left=0;bottom=0;right=0;pointerEvents=1;fontSize=16;labelBackgroundColor=none;fontColor=#CCCCCC;" vertex="1" parent="I8hxaUvusRozfNYvWSky-66">
          <mxGeometry width="60" height="20" as="geometry">
            <mxRectangle width="60" height="20" as="alternateBounds" />
          </mxGeometry>
        </mxCell>
        <mxCell id="I8hxaUvusRozfNYvWSky-68" value="b" style="shape=partialRectangle;html=1;whiteSpace=wrap;connectable=0;strokeColor=#0F8B8D;overflow=hidden;fillColor=none;top=0;left=0;bottom=0;right=0;pointerEvents=1;fontSize=16;labelBackgroundColor=none;fontColor=#CCCCCC;" vertex="1" parent="I8hxaUvusRozfNYvWSky-66">
          <mxGeometry x="60" width="60" height="20" as="geometry">
            <mxRectangle width="60" height="20" as="alternateBounds" />
          </mxGeometry>
        </mxCell>
        <mxCell id="I8hxaUvusRozfNYvWSky-69" value="c" style="shape=partialRectangle;html=1;whiteSpace=wrap;connectable=0;strokeColor=#0F8B8D;overflow=hidden;fillColor=none;top=0;left=0;bottom=0;right=0;pointerEvents=1;fontSize=16;labelBackgroundColor=none;fontColor=#CCCCCC;" vertex="1" parent="I8hxaUvusRozfNYvWSky-66">
          <mxGeometry x="120" width="60" height="20" as="geometry">
            <mxRectangle width="60" height="20" as="alternateBounds" />
          </mxGeometry>
        </mxCell>
        <mxCell id="I8hxaUvusRozfNYvWSky-70" style="shape=tableRow;horizontal=0;startSize=0;swimlaneHead=0;swimlaneBody=0;strokeColor=#0F8B8D;top=0;left=0;bottom=0;right=0;collapsible=0;dropTarget=0;fillColor=none;points=[[0,0.5],[1,0.5]];portConstraint=eastwest;fontSize=16;labelBackgroundColor=none;fontColor=#143642;" vertex="1" parent="I8hxaUvusRozfNYvWSky-65">
          <mxGeometry y="50" width="180" height="30" as="geometry" />
        </mxCell>
        <mxCell id="I8hxaUvusRozfNYvWSky-71" value="R1" style="shape=partialRectangle;html=1;whiteSpace=wrap;connectable=0;strokeColor=#0F8B8D;overflow=hidden;fillColor=none;top=0;left=0;bottom=0;right=0;pointerEvents=1;fontSize=16;labelBackgroundColor=none;fontColor=#CCCCCC;" vertex="1" parent="I8hxaUvusRozfNYvWSky-70">
          <mxGeometry width="60" height="30" as="geometry">
            <mxRectangle width="60" height="30" as="alternateBounds" />
          </mxGeometry>
        </mxCell>
        <mxCell id="I8hxaUvusRozfNYvWSky-72" style="shape=partialRectangle;html=1;whiteSpace=wrap;connectable=0;strokeColor=#0F8B8D;overflow=hidden;fillColor=none;top=0;left=0;bottom=0;right=0;pointerEvents=1;fontSize=16;labelBackgroundColor=none;fontColor=#143642;" vertex="1" parent="I8hxaUvusRozfNYvWSky-70">
          <mxGeometry x="60" width="60" height="30" as="geometry">
            <mxRectangle width="60" height="30" as="alternateBounds" />
          </mxGeometry>
        </mxCell>
        <mxCell id="I8hxaUvusRozfNYvWSky-73" style="shape=partialRectangle;html=1;whiteSpace=wrap;connectable=0;strokeColor=#0F8B8D;overflow=hidden;fillColor=none;top=0;left=0;bottom=0;right=0;pointerEvents=1;fontSize=16;labelBackgroundColor=none;fontColor=#143642;" vertex="1" parent="I8hxaUvusRozfNYvWSky-70">
          <mxGeometry x="120" width="60" height="30" as="geometry">
            <mxRectangle width="60" height="30" as="alternateBounds" />
          </mxGeometry>
        </mxCell>
        <mxCell id="I8hxaUvusRozfNYvWSky-74" style="shape=tableRow;horizontal=0;startSize=0;swimlaneHead=0;swimlaneBody=0;strokeColor=#0F8B8D;top=0;left=0;bottom=0;right=0;collapsible=0;dropTarget=0;fillColor=none;points=[[0,0.5],[1,0.5]];portConstraint=eastwest;fontSize=16;labelBackgroundColor=none;fontColor=#143642;" vertex="1" parent="I8hxaUvusRozfNYvWSky-65">
          <mxGeometry y="80" width="180" height="30" as="geometry" />
        </mxCell>
        <mxCell id="I8hxaUvusRozfNYvWSky-75" value="R2" style="shape=partialRectangle;html=1;whiteSpace=wrap;connectable=0;strokeColor=#0F8B8D;overflow=hidden;fillColor=none;top=0;left=0;bottom=0;right=0;pointerEvents=1;fontSize=16;labelBackgroundColor=none;fontColor=#CCCCCC;" vertex="1" parent="I8hxaUvusRozfNYvWSky-74">
          <mxGeometry width="60" height="30" as="geometry">
            <mxRectangle width="60" height="30" as="alternateBounds" />
          </mxGeometry>
        </mxCell>
        <mxCell id="I8hxaUvusRozfNYvWSky-76" style="shape=partialRectangle;html=1;whiteSpace=wrap;connectable=0;strokeColor=#0F8B8D;overflow=hidden;fillColor=none;top=0;left=0;bottom=0;right=0;pointerEvents=1;fontSize=16;labelBackgroundColor=none;fontColor=#143642;" vertex="1" parent="I8hxaUvusRozfNYvWSky-74">
          <mxGeometry x="60" width="60" height="30" as="geometry">
            <mxRectangle width="60" height="30" as="alternateBounds" />
          </mxGeometry>
        </mxCell>
        <mxCell id="I8hxaUvusRozfNYvWSky-77" style="shape=partialRectangle;html=1;whiteSpace=wrap;connectable=0;strokeColor=#0F8B8D;overflow=hidden;fillColor=none;top=0;left=0;bottom=0;right=0;pointerEvents=1;fontSize=16;labelBackgroundColor=none;fontColor=#143642;" vertex="1" parent="I8hxaUvusRozfNYvWSky-74">
          <mxGeometry x="120" width="60" height="30" as="geometry">
            <mxRectangle width="60" height="30" as="alternateBounds" />
          </mxGeometry>
        </mxCell>
        <mxCell id="I8hxaUvusRozfNYvWSky-78" value="A" style="shape=table;startSize=30;container=1;collapsible=0;childLayout=tableLayout;strokeColor=#0F8B8D;fontSize=16;labelBackgroundColor=none;fillColor=#FAE5C7;fontColor=#143642;" vertex="1" parent="1">
          <mxGeometry x="440" y="670" width="240" height="110" as="geometry" />
        </mxCell>
        <mxCell id="I8hxaUvusRozfNYvWSky-79" value="" style="shape=tableRow;horizontal=0;startSize=0;swimlaneHead=0;swimlaneBody=0;strokeColor=#0F8B8D;top=0;left=0;bottom=0;right=0;collapsible=0;dropTarget=0;fillColor=none;points=[[0,0.5],[1,0.5]];portConstraint=eastwest;fontSize=16;labelBackgroundColor=none;fontColor=#143642;" vertex="1" parent="I8hxaUvusRozfNYvWSky-78">
          <mxGeometry y="30" width="240" height="20" as="geometry" />
        </mxCell>
        <mxCell id="I8hxaUvusRozfNYvWSky-80" value="a" style="shape=partialRectangle;html=1;whiteSpace=wrap;connectable=0;strokeColor=#0F8B8D;overflow=hidden;fillColor=none;top=0;left=0;bottom=0;right=0;pointerEvents=1;fontSize=16;labelBackgroundColor=none;fontColor=#143642;" vertex="1" parent="I8hxaUvusRozfNYvWSky-79">
          <mxGeometry width="60" height="20" as="geometry">
            <mxRectangle width="60" height="20" as="alternateBounds" />
          </mxGeometry>
        </mxCell>
        <mxCell id="I8hxaUvusRozfNYvWSky-81" value="b" style="shape=partialRectangle;html=1;whiteSpace=wrap;connectable=0;strokeColor=#0F8B8D;overflow=hidden;fillColor=none;top=0;left=0;bottom=0;right=0;pointerEvents=1;fontSize=16;labelBackgroundColor=none;fontColor=#143642;" vertex="1" parent="I8hxaUvusRozfNYvWSky-79">
          <mxGeometry x="60" width="60" height="20" as="geometry">
            <mxRectangle width="60" height="20" as="alternateBounds" />
          </mxGeometry>
        </mxCell>
        <mxCell id="I8hxaUvusRozfNYvWSky-82" value="c" style="shape=partialRectangle;html=1;whiteSpace=wrap;connectable=0;strokeColor=#0F8B8D;overflow=hidden;fillColor=none;top=0;left=0;bottom=0;right=0;pointerEvents=1;fontSize=16;labelBackgroundColor=none;fontColor=#143642;" vertex="1" parent="I8hxaUvusRozfNYvWSky-79">
          <mxGeometry x="120" width="60" height="20" as="geometry">
            <mxRectangle width="60" height="20" as="alternateBounds" />
          </mxGeometry>
        </mxCell>
        <mxCell id="I8hxaUvusRozfNYvWSky-83" value="d" style="shape=partialRectangle;html=1;whiteSpace=wrap;connectable=0;strokeColor=#0F8B8D;overflow=hidden;fillColor=none;top=0;left=0;bottom=0;right=0;pointerEvents=1;fontSize=16;labelBackgroundColor=none;fontColor=#143642;" vertex="1" parent="I8hxaUvusRozfNYvWSky-79">
          <mxGeometry x="180" width="60" height="20" as="geometry">
            <mxRectangle width="60" height="20" as="alternateBounds" />
          </mxGeometry>
        </mxCell>
        <mxCell id="I8hxaUvusRozfNYvWSky-84" style="shape=tableRow;horizontal=0;startSize=0;swimlaneHead=0;swimlaneBody=0;strokeColor=#0F8B8D;top=0;left=0;bottom=0;right=0;collapsible=0;dropTarget=0;fillColor=none;points=[[0,0.5],[1,0.5]];portConstraint=eastwest;fontSize=16;labelBackgroundColor=none;fontColor=#143642;" vertex="1" parent="I8hxaUvusRozfNYvWSky-78">
          <mxGeometry y="50" width="240" height="30" as="geometry" />
        </mxCell>
        <mxCell id="I8hxaUvusRozfNYvWSky-85" value="R1" style="shape=partialRectangle;html=1;whiteSpace=wrap;connectable=0;strokeColor=#0F8B8D;overflow=hidden;fillColor=none;top=0;left=0;bottom=0;right=0;pointerEvents=1;fontSize=16;labelBackgroundColor=none;fontColor=#143642;" vertex="1" parent="I8hxaUvusRozfNYvWSky-84">
          <mxGeometry width="60" height="30" as="geometry">
            <mxRectangle width="60" height="30" as="alternateBounds" />
          </mxGeometry>
        </mxCell>
        <mxCell id="I8hxaUvusRozfNYvWSky-86" style="shape=partialRectangle;html=1;whiteSpace=wrap;connectable=0;strokeColor=#0F8B8D;overflow=hidden;fillColor=none;top=0;left=0;bottom=0;right=0;pointerEvents=1;fontSize=16;labelBackgroundColor=none;fontColor=#143642;" vertex="1" parent="I8hxaUvusRozfNYvWSky-84">
          <mxGeometry x="60" width="60" height="30" as="geometry">
            <mxRectangle width="60" height="30" as="alternateBounds" />
          </mxGeometry>
        </mxCell>
        <mxCell id="I8hxaUvusRozfNYvWSky-87" style="shape=partialRectangle;html=1;whiteSpace=wrap;connectable=0;strokeColor=#0F8B8D;overflow=hidden;fillColor=none;top=0;left=0;bottom=0;right=0;pointerEvents=1;fontSize=16;labelBackgroundColor=none;fontColor=#143642;" vertex="1" parent="I8hxaUvusRozfNYvWSky-84">
          <mxGeometry x="120" width="60" height="30" as="geometry">
            <mxRectangle width="60" height="30" as="alternateBounds" />
          </mxGeometry>
        </mxCell>
        <mxCell id="I8hxaUvusRozfNYvWSky-88" style="shape=partialRectangle;html=1;whiteSpace=wrap;connectable=0;strokeColor=#0F8B8D;overflow=hidden;fillColor=none;top=0;left=0;bottom=0;right=0;pointerEvents=1;fontSize=16;labelBackgroundColor=none;fontColor=#143642;" vertex="1" parent="I8hxaUvusRozfNYvWSky-84">
          <mxGeometry x="180" width="60" height="30" as="geometry">
            <mxRectangle width="60" height="30" as="alternateBounds" />
          </mxGeometry>
        </mxCell>
        <mxCell id="I8hxaUvusRozfNYvWSky-89" style="shape=tableRow;horizontal=0;startSize=0;swimlaneHead=0;swimlaneBody=0;strokeColor=#0F8B8D;top=0;left=0;bottom=0;right=0;collapsible=0;dropTarget=0;fillColor=none;points=[[0,0.5],[1,0.5]];portConstraint=eastwest;fontSize=16;labelBackgroundColor=none;fontColor=#143642;" vertex="1" parent="I8hxaUvusRozfNYvWSky-78">
          <mxGeometry y="80" width="240" height="30" as="geometry" />
        </mxCell>
        <mxCell id="I8hxaUvusRozfNYvWSky-90" value="R2" style="shape=partialRectangle;html=1;whiteSpace=wrap;connectable=0;strokeColor=#0F8B8D;overflow=hidden;fillColor=none;top=0;left=0;bottom=0;right=0;pointerEvents=1;fontSize=16;labelBackgroundColor=none;fontColor=#143642;" vertex="1" parent="I8hxaUvusRozfNYvWSky-89">
          <mxGeometry width="60" height="30" as="geometry">
            <mxRectangle width="60" height="30" as="alternateBounds" />
          </mxGeometry>
        </mxCell>
        <mxCell id="I8hxaUvusRozfNYvWSky-91" style="shape=partialRectangle;html=1;whiteSpace=wrap;connectable=0;strokeColor=#0F8B8D;overflow=hidden;fillColor=none;top=0;left=0;bottom=0;right=0;pointerEvents=1;fontSize=16;labelBackgroundColor=none;fontColor=#143642;" vertex="1" parent="I8hxaUvusRozfNYvWSky-89">
          <mxGeometry x="60" width="60" height="30" as="geometry">
            <mxRectangle width="60" height="30" as="alternateBounds" />
          </mxGeometry>
        </mxCell>
        <mxCell id="I8hxaUvusRozfNYvWSky-92" style="shape=partialRectangle;html=1;whiteSpace=wrap;connectable=0;strokeColor=#0F8B8D;overflow=hidden;fillColor=none;top=0;left=0;bottom=0;right=0;pointerEvents=1;fontSize=16;labelBackgroundColor=none;fontColor=#143642;" vertex="1" parent="I8hxaUvusRozfNYvWSky-89">
          <mxGeometry x="120" width="60" height="30" as="geometry">
            <mxRectangle width="60" height="30" as="alternateBounds" />
          </mxGeometry>
        </mxCell>
        <mxCell id="I8hxaUvusRozfNYvWSky-93" style="shape=partialRectangle;html=1;whiteSpace=wrap;connectable=0;strokeColor=#0F8B8D;overflow=hidden;fillColor=none;top=0;left=0;bottom=0;right=0;pointerEvents=1;fontSize=16;labelBackgroundColor=none;fontColor=#143642;" vertex="1" parent="I8hxaUvusRozfNYvWSky-89">
          <mxGeometry x="180" width="60" height="30" as="geometry">
            <mxRectangle width="60" height="30" as="alternateBounds" />
          </mxGeometry>
        </mxCell>
      </root>
    </mxGraphModel>
  </diagram>
  <diagram name="row log" id="yiA8rEmKI_hOX56D1wr9">
    <mxGraphModel dx="731" dy="759" grid="1" gridSize="10" guides="1" tooltips="1" connect="1" arrows="1" fold="1" page="1" pageScale="1" pageWidth="1654" pageHeight="1169" math="0" shadow="0">
      <root>
        <mxCell id="RtTRbL172uNdjdfyW_E4-0" />
        <mxCell id="RtTRbL172uNdjdfyW_E4-1" parent="RtTRbL172uNdjdfyW_E4-0" />
        <mxCell id="RtTRbL172uNdjdfyW_E4-2" value="A" style="shape=table;startSize=30;container=1;collapsible=0;childLayout=tableLayout;strokeColor=#0F8B8D;fontSize=16;labelBackgroundColor=none;fillColor=#FAE5C7;fontColor=#143642;" vertex="1" parent="RtTRbL172uNdjdfyW_E4-1">
          <mxGeometry x="320" y="140" width="180" height="110" as="geometry" />
        </mxCell>
        <mxCell id="RtTRbL172uNdjdfyW_E4-3" value="" style="shape=tableRow;horizontal=0;startSize=0;swimlaneHead=0;swimlaneBody=0;strokeColor=#0F8B8D;top=0;left=0;bottom=0;right=0;collapsible=0;dropTarget=0;fillColor=none;points=[[0,0.5],[1,0.5]];portConstraint=eastwest;fontSize=16;labelBackgroundColor=none;fontColor=#143642;" vertex="1" parent="RtTRbL172uNdjdfyW_E4-2">
          <mxGeometry y="30" width="180" height="20" as="geometry" />
        </mxCell>
        <mxCell id="RtTRbL172uNdjdfyW_E4-4" value="a" style="shape=partialRectangle;html=1;whiteSpace=wrap;connectable=0;strokeColor=#0F8B8D;overflow=hidden;fillColor=none;top=0;left=0;bottom=0;right=0;pointerEvents=1;fontSize=16;labelBackgroundColor=none;fontColor=#143642;" vertex="1" parent="RtTRbL172uNdjdfyW_E4-3">
          <mxGeometry width="60" height="20" as="geometry">
            <mxRectangle width="60" height="20" as="alternateBounds" />
          </mxGeometry>
        </mxCell>
        <mxCell id="RtTRbL172uNdjdfyW_E4-5" value="b" style="shape=partialRectangle;html=1;whiteSpace=wrap;connectable=0;strokeColor=#0F8B8D;overflow=hidden;fillColor=none;top=0;left=0;bottom=0;right=0;pointerEvents=1;fontSize=16;labelBackgroundColor=none;fontColor=#143642;" vertex="1" parent="RtTRbL172uNdjdfyW_E4-3">
          <mxGeometry x="60" width="60" height="20" as="geometry">
            <mxRectangle width="60" height="20" as="alternateBounds" />
          </mxGeometry>
        </mxCell>
        <mxCell id="RtTRbL172uNdjdfyW_E4-6" value="c" style="shape=partialRectangle;html=1;whiteSpace=wrap;connectable=0;strokeColor=#0F8B8D;overflow=hidden;fillColor=none;top=0;left=0;bottom=0;right=0;pointerEvents=1;fontSize=16;labelBackgroundColor=none;fontColor=#143642;" vertex="1" parent="RtTRbL172uNdjdfyW_E4-3">
          <mxGeometry x="120" width="60" height="20" as="geometry">
            <mxRectangle width="60" height="20" as="alternateBounds" />
          </mxGeometry>
        </mxCell>
        <mxCell id="RtTRbL172uNdjdfyW_E4-7" style="shape=tableRow;horizontal=0;startSize=0;swimlaneHead=0;swimlaneBody=0;strokeColor=#0F8B8D;top=0;left=0;bottom=0;right=0;collapsible=0;dropTarget=0;fillColor=none;points=[[0,0.5],[1,0.5]];portConstraint=eastwest;fontSize=16;labelBackgroundColor=none;fontColor=#143642;" vertex="1" parent="RtTRbL172uNdjdfyW_E4-2">
          <mxGeometry y="50" width="180" height="30" as="geometry" />
        </mxCell>
        <mxCell id="RtTRbL172uNdjdfyW_E4-8" value="R1" style="shape=partialRectangle;html=1;whiteSpace=wrap;connectable=0;strokeColor=#0F8B8D;overflow=hidden;fillColor=none;top=0;left=0;bottom=0;right=0;pointerEvents=1;fontSize=16;labelBackgroundColor=none;fontColor=#143642;" vertex="1" parent="RtTRbL172uNdjdfyW_E4-7">
          <mxGeometry width="60" height="30" as="geometry">
            <mxRectangle width="60" height="30" as="alternateBounds" />
          </mxGeometry>
        </mxCell>
        <mxCell id="RtTRbL172uNdjdfyW_E4-9" style="shape=partialRectangle;html=1;whiteSpace=wrap;connectable=0;strokeColor=#0F8B8D;overflow=hidden;fillColor=none;top=0;left=0;bottom=0;right=0;pointerEvents=1;fontSize=16;labelBackgroundColor=none;fontColor=#143642;" vertex="1" parent="RtTRbL172uNdjdfyW_E4-7">
          <mxGeometry x="60" width="60" height="30" as="geometry">
            <mxRectangle width="60" height="30" as="alternateBounds" />
          </mxGeometry>
        </mxCell>
        <mxCell id="RtTRbL172uNdjdfyW_E4-10" style="shape=partialRectangle;html=1;whiteSpace=wrap;connectable=0;strokeColor=#0F8B8D;overflow=hidden;fillColor=none;top=0;left=0;bottom=0;right=0;pointerEvents=1;fontSize=16;labelBackgroundColor=none;fontColor=#143642;" vertex="1" parent="RtTRbL172uNdjdfyW_E4-7">
          <mxGeometry x="120" width="60" height="30" as="geometry">
            <mxRectangle width="60" height="30" as="alternateBounds" />
          </mxGeometry>
        </mxCell>
        <mxCell id="RtTRbL172uNdjdfyW_E4-11" style="shape=tableRow;horizontal=0;startSize=0;swimlaneHead=0;swimlaneBody=0;strokeColor=#0F8B8D;top=0;left=0;bottom=0;right=0;collapsible=0;dropTarget=0;fillColor=none;points=[[0,0.5],[1,0.5]];portConstraint=eastwest;fontSize=16;labelBackgroundColor=none;fontColor=#143642;" vertex="1" parent="RtTRbL172uNdjdfyW_E4-2">
          <mxGeometry y="80" width="180" height="30" as="geometry" />
        </mxCell>
        <mxCell id="RtTRbL172uNdjdfyW_E4-12" value="R2" style="shape=partialRectangle;html=1;whiteSpace=wrap;connectable=0;strokeColor=#0F8B8D;overflow=hidden;fillColor=none;top=0;left=0;bottom=0;right=0;pointerEvents=1;fontSize=16;labelBackgroundColor=none;fontColor=#143642;" vertex="1" parent="RtTRbL172uNdjdfyW_E4-11">
          <mxGeometry width="60" height="30" as="geometry">
            <mxRectangle width="60" height="30" as="alternateBounds" />
          </mxGeometry>
        </mxCell>
        <mxCell id="RtTRbL172uNdjdfyW_E4-13" style="shape=partialRectangle;html=1;whiteSpace=wrap;connectable=0;strokeColor=#0F8B8D;overflow=hidden;fillColor=none;top=0;left=0;bottom=0;right=0;pointerEvents=1;fontSize=16;labelBackgroundColor=none;fontColor=#143642;" vertex="1" parent="RtTRbL172uNdjdfyW_E4-11">
          <mxGeometry x="60" width="60" height="30" as="geometry">
            <mxRectangle width="60" height="30" as="alternateBounds" />
          </mxGeometry>
        </mxCell>
        <mxCell id="RtTRbL172uNdjdfyW_E4-14" style="shape=partialRectangle;html=1;whiteSpace=wrap;connectable=0;strokeColor=#0F8B8D;overflow=hidden;fillColor=none;top=0;left=0;bottom=0;right=0;pointerEvents=1;fontSize=16;labelBackgroundColor=none;fontColor=#143642;" vertex="1" parent="RtTRbL172uNdjdfyW_E4-11">
          <mxGeometry x="120" width="60" height="30" as="geometry">
            <mxRectangle width="60" height="30" as="alternateBounds" />
          </mxGeometry>
        </mxCell>
        <mxCell id="RtTRbL172uNdjdfyW_E4-15" value="" style="shape=flexArrow;endArrow=classic;html=1;rounded=0;strokeColor=#A8201A;fontColor=#143642;fillColor=#FAE5C7;entryX=0.5;entryY=0;entryDx=0;entryDy=0;" edge="1" parent="RtTRbL172uNdjdfyW_E4-1">
          <mxGeometry width="50" height="50" relative="1" as="geometry">
            <mxPoint x="400" y="260" as="sourcePoint" />
            <mxPoint x="400" y="310" as="targetPoint" />
          </mxGeometry>
        </mxCell>
        <mxCell id="RtTRbL172uNdjdfyW_E4-16" value="" style="shape=flexArrow;endArrow=classic;html=1;rounded=0;strokeColor=#A8201A;fontColor=#143642;fillColor=#FAE5C7;entryX=0.5;entryY=0;entryDx=0;entryDy=0;" edge="1" parent="RtTRbL172uNdjdfyW_E4-1">
          <mxGeometry width="50" height="50" relative="1" as="geometry">
            <mxPoint x="400" y="600" as="sourcePoint" />
            <mxPoint x="400" y="650" as="targetPoint" />
          </mxGeometry>
        </mxCell>
        <mxCell id="RtTRbL172uNdjdfyW_E4-17" value="A" style="shape=table;startSize=30;container=1;collapsible=0;childLayout=tableLayout;strokeColor=#0F8B8D;fontSize=16;labelBackgroundColor=none;fillColor=#FAE5C7;fontColor=#143642;" vertex="1" parent="RtTRbL172uNdjdfyW_E4-1">
          <mxGeometry x="190" y="310" width="180" height="140" as="geometry" />
        </mxCell>
        <mxCell id="RtTRbL172uNdjdfyW_E4-18" value="" style="shape=tableRow;horizontal=0;startSize=0;swimlaneHead=0;swimlaneBody=0;strokeColor=#0F8B8D;top=0;left=0;bottom=0;right=0;collapsible=0;dropTarget=0;fillColor=none;points=[[0,0.5],[1,0.5]];portConstraint=eastwest;fontSize=16;labelBackgroundColor=none;fontColor=#143642;" vertex="1" parent="RtTRbL172uNdjdfyW_E4-17">
          <mxGeometry y="30" width="180" height="20" as="geometry" />
        </mxCell>
        <mxCell id="RtTRbL172uNdjdfyW_E4-19" value="a" style="shape=partialRectangle;html=1;whiteSpace=wrap;connectable=0;strokeColor=#0F8B8D;overflow=hidden;fillColor=none;top=0;left=0;bottom=0;right=0;pointerEvents=1;fontSize=16;labelBackgroundColor=none;fontColor=#143642;" vertex="1" parent="RtTRbL172uNdjdfyW_E4-18">
          <mxGeometry width="60" height="20" as="geometry">
            <mxRectangle width="60" height="20" as="alternateBounds" />
          </mxGeometry>
        </mxCell>
        <mxCell id="RtTRbL172uNdjdfyW_E4-20" value="b" style="shape=partialRectangle;html=1;whiteSpace=wrap;connectable=0;strokeColor=#0F8B8D;overflow=hidden;fillColor=none;top=0;left=0;bottom=0;right=0;pointerEvents=1;fontSize=16;labelBackgroundColor=none;fontColor=#143642;" vertex="1" parent="RtTRbL172uNdjdfyW_E4-18">
          <mxGeometry x="60" width="60" height="20" as="geometry">
            <mxRectangle width="60" height="20" as="alternateBounds" />
          </mxGeometry>
        </mxCell>
        <mxCell id="RtTRbL172uNdjdfyW_E4-21" value="c" style="shape=partialRectangle;html=1;whiteSpace=wrap;connectable=0;strokeColor=#0F8B8D;overflow=hidden;fillColor=none;top=0;left=0;bottom=0;right=0;pointerEvents=1;fontSize=16;labelBackgroundColor=none;fontColor=#143642;" vertex="1" parent="RtTRbL172uNdjdfyW_E4-18">
          <mxGeometry x="120" width="60" height="20" as="geometry">
            <mxRectangle width="60" height="20" as="alternateBounds" />
          </mxGeometry>
        </mxCell>
        <mxCell id="RtTRbL172uNdjdfyW_E4-22" style="shape=tableRow;horizontal=0;startSize=0;swimlaneHead=0;swimlaneBody=0;strokeColor=#0F8B8D;top=0;left=0;bottom=0;right=0;collapsible=0;dropTarget=0;fillColor=none;points=[[0,0.5],[1,0.5]];portConstraint=eastwest;fontSize=16;labelBackgroundColor=none;fontColor=#143642;" vertex="1" parent="RtTRbL172uNdjdfyW_E4-17">
          <mxGeometry y="50" width="180" height="30" as="geometry" />
        </mxCell>
        <mxCell id="RtTRbL172uNdjdfyW_E4-23" value="R1" style="shape=partialRectangle;html=1;whiteSpace=wrap;connectable=0;strokeColor=#0F8B8D;overflow=hidden;fillColor=none;top=0;left=0;bottom=0;right=0;pointerEvents=1;fontSize=16;labelBackgroundColor=none;fontColor=#143642;" vertex="1" parent="RtTRbL172uNdjdfyW_E4-22">
          <mxGeometry width="60" height="30" as="geometry">
            <mxRectangle width="60" height="30" as="alternateBounds" />
          </mxGeometry>
        </mxCell>
        <mxCell id="RtTRbL172uNdjdfyW_E4-24" style="shape=partialRectangle;html=1;whiteSpace=wrap;connectable=0;strokeColor=#0F8B8D;overflow=hidden;fillColor=none;top=0;left=0;bottom=0;right=0;pointerEvents=1;fontSize=16;labelBackgroundColor=none;fontColor=#143642;" vertex="1" parent="RtTRbL172uNdjdfyW_E4-22">
          <mxGeometry x="60" width="60" height="30" as="geometry">
            <mxRectangle width="60" height="30" as="alternateBounds" />
          </mxGeometry>
        </mxCell>
        <mxCell id="RtTRbL172uNdjdfyW_E4-25" style="shape=partialRectangle;html=1;whiteSpace=wrap;connectable=0;strokeColor=#0F8B8D;overflow=hidden;fillColor=none;top=0;left=0;bottom=0;right=0;pointerEvents=1;fontSize=16;labelBackgroundColor=none;fontColor=#143642;" vertex="1" parent="RtTRbL172uNdjdfyW_E4-22">
          <mxGeometry x="120" width="60" height="30" as="geometry">
            <mxRectangle width="60" height="30" as="alternateBounds" />
          </mxGeometry>
        </mxCell>
        <mxCell id="RtTRbL172uNdjdfyW_E4-26" style="shape=tableRow;horizontal=0;startSize=0;swimlaneHead=0;swimlaneBody=0;strokeColor=#0F8B8D;top=0;left=0;bottom=0;right=0;collapsible=0;dropTarget=0;fillColor=none;points=[[0,0.5],[1,0.5]];portConstraint=eastwest;fontSize=16;labelBackgroundColor=none;fontColor=#143642;" vertex="1" parent="RtTRbL172uNdjdfyW_E4-17">
          <mxGeometry y="80" width="180" height="30" as="geometry" />
        </mxCell>
        <mxCell id="RtTRbL172uNdjdfyW_E4-27" value="R2" style="shape=partialRectangle;html=1;whiteSpace=wrap;connectable=0;strokeColor=#0F8B8D;overflow=hidden;fillColor=none;top=0;left=0;bottom=0;right=0;pointerEvents=1;fontSize=16;labelBackgroundColor=none;fontColor=#143642;" vertex="1" parent="RtTRbL172uNdjdfyW_E4-26">
          <mxGeometry width="60" height="30" as="geometry">
            <mxRectangle width="60" height="30" as="alternateBounds" />
          </mxGeometry>
        </mxCell>
        <mxCell id="RtTRbL172uNdjdfyW_E4-28" style="shape=partialRectangle;html=1;whiteSpace=wrap;connectable=0;strokeColor=#0F8B8D;overflow=hidden;fillColor=none;top=0;left=0;bottom=0;right=0;pointerEvents=1;fontSize=16;labelBackgroundColor=none;fontColor=#143642;" vertex="1" parent="RtTRbL172uNdjdfyW_E4-26">
          <mxGeometry x="60" width="60" height="30" as="geometry">
            <mxRectangle width="60" height="30" as="alternateBounds" />
          </mxGeometry>
        </mxCell>
        <mxCell id="RtTRbL172uNdjdfyW_E4-29" style="shape=partialRectangle;html=1;whiteSpace=wrap;connectable=0;strokeColor=#0F8B8D;overflow=hidden;fillColor=none;top=0;left=0;bottom=0;right=0;pointerEvents=1;fontSize=16;labelBackgroundColor=none;fontColor=#143642;" vertex="1" parent="RtTRbL172uNdjdfyW_E4-26">
          <mxGeometry x="120" width="60" height="30" as="geometry">
            <mxRectangle width="60" height="30" as="alternateBounds" />
          </mxGeometry>
        </mxCell>
        <mxCell id="RtTRbL172uNdjdfyW_E4-30" style="shape=tableRow;horizontal=0;startSize=0;swimlaneHead=0;swimlaneBody=0;strokeColor=#0F8B8D;top=0;left=0;bottom=0;right=0;collapsible=0;dropTarget=0;fillColor=none;points=[[0,0.5],[1,0.5]];portConstraint=eastwest;fontSize=16;labelBackgroundColor=none;fontColor=#143642;" vertex="1" parent="RtTRbL172uNdjdfyW_E4-17">
          <mxGeometry y="110" width="180" height="30" as="geometry" />
        </mxCell>
        <mxCell id="RtTRbL172uNdjdfyW_E4-31" value="R3" style="shape=partialRectangle;html=1;whiteSpace=wrap;connectable=0;strokeColor=#ae4132;overflow=hidden;fillColor=#fad9d5;top=0;left=0;bottom=0;right=0;pointerEvents=1;fontSize=16;labelBackgroundColor=none;" vertex="1" parent="RtTRbL172uNdjdfyW_E4-30">
          <mxGeometry width="60" height="30" as="geometry">
            <mxRectangle width="60" height="30" as="alternateBounds" />
          </mxGeometry>
        </mxCell>
        <mxCell id="RtTRbL172uNdjdfyW_E4-32" style="shape=partialRectangle;html=1;whiteSpace=wrap;connectable=0;strokeColor=#0F8B8D;overflow=hidden;fillColor=none;top=0;left=0;bottom=0;right=0;pointerEvents=1;fontSize=16;labelBackgroundColor=none;fontColor=#143642;" vertex="1" parent="RtTRbL172uNdjdfyW_E4-30">
          <mxGeometry x="60" width="60" height="30" as="geometry">
            <mxRectangle width="60" height="30" as="alternateBounds" />
          </mxGeometry>
        </mxCell>
        <mxCell id="RtTRbL172uNdjdfyW_E4-33" style="shape=partialRectangle;html=1;whiteSpace=wrap;connectable=0;strokeColor=#0F8B8D;overflow=hidden;fillColor=none;top=0;left=0;bottom=0;right=0;pointerEvents=1;fontSize=16;labelBackgroundColor=none;fontColor=#143642;" vertex="1" parent="RtTRbL172uNdjdfyW_E4-30">
          <mxGeometry x="120" width="60" height="30" as="geometry">
            <mxRectangle width="60" height="30" as="alternateBounds" />
          </mxGeometry>
        </mxCell>
        <mxCell id="RtTRbL172uNdjdfyW_E4-34" value="B" style="shape=table;startSize=30;container=1;collapsible=0;childLayout=tableLayout;strokeColor=#0F8B8D;fontSize=16;labelBackgroundColor=none;fillColor=#FAE5C7;fontColor=#143642;" vertex="1" parent="RtTRbL172uNdjdfyW_E4-1">
          <mxGeometry x="430" y="310" width="240" height="50" as="geometry" />
        </mxCell>
        <mxCell id="RtTRbL172uNdjdfyW_E4-35" value="" style="shape=tableRow;horizontal=0;startSize=0;swimlaneHead=0;swimlaneBody=0;strokeColor=#0F8B8D;top=0;left=0;bottom=0;right=0;collapsible=0;dropTarget=0;fillColor=none;points=[[0,0.5],[1,0.5]];portConstraint=eastwest;fontSize=16;labelBackgroundColor=none;fontColor=#143642;" vertex="1" parent="RtTRbL172uNdjdfyW_E4-34">
          <mxGeometry y="30" width="240" height="20" as="geometry" />
        </mxCell>
        <mxCell id="RtTRbL172uNdjdfyW_E4-36" value="a" style="shape=partialRectangle;html=1;whiteSpace=wrap;connectable=0;strokeColor=#0F8B8D;overflow=hidden;fillColor=none;top=0;left=0;bottom=0;right=0;pointerEvents=1;fontSize=16;labelBackgroundColor=none;fontColor=#143642;" vertex="1" parent="RtTRbL172uNdjdfyW_E4-35">
          <mxGeometry width="60" height="20" as="geometry">
            <mxRectangle width="60" height="20" as="alternateBounds" />
          </mxGeometry>
        </mxCell>
        <mxCell id="RtTRbL172uNdjdfyW_E4-37" value="b" style="shape=partialRectangle;html=1;whiteSpace=wrap;connectable=0;strokeColor=#0F8B8D;overflow=hidden;fillColor=none;top=0;left=0;bottom=0;right=0;pointerEvents=1;fontSize=16;labelBackgroundColor=none;fontColor=#143642;" vertex="1" parent="RtTRbL172uNdjdfyW_E4-35">
          <mxGeometry x="60" width="60" height="20" as="geometry">
            <mxRectangle width="60" height="20" as="alternateBounds" />
          </mxGeometry>
        </mxCell>
        <mxCell id="RtTRbL172uNdjdfyW_E4-38" value="c" style="shape=partialRectangle;html=1;whiteSpace=wrap;connectable=0;strokeColor=#0F8B8D;overflow=hidden;fillColor=none;top=0;left=0;bottom=0;right=0;pointerEvents=1;fontSize=16;labelBackgroundColor=none;fontColor=#143642;" vertex="1" parent="RtTRbL172uNdjdfyW_E4-35">
          <mxGeometry x="120" width="60" height="20" as="geometry">
            <mxRectangle width="60" height="20" as="alternateBounds" />
          </mxGeometry>
        </mxCell>
        <mxCell id="RtTRbL172uNdjdfyW_E4-39" value="d" style="shape=partialRectangle;html=1;whiteSpace=wrap;connectable=0;strokeColor=#82b366;overflow=hidden;fillColor=#d5e8d4;top=0;left=0;bottom=0;right=0;pointerEvents=1;fontSize=16;labelBackgroundColor=none;" vertex="1" parent="RtTRbL172uNdjdfyW_E4-35">
          <mxGeometry x="180" width="60" height="20" as="geometry">
            <mxRectangle width="60" height="20" as="alternateBounds" />
          </mxGeometry>
        </mxCell>
        <mxCell id="RtTRbL172uNdjdfyW_E4-40" value="B" style="shape=table;startSize=30;container=1;collapsible=0;childLayout=tableLayout;strokeColor=#0F8B8D;fontSize=16;labelBackgroundColor=none;fillColor=#FAE5C7;fontColor=#143642;" vertex="1" parent="RtTRbL172uNdjdfyW_E4-1">
          <mxGeometry x="430" y="475" width="240" height="140" as="geometry" />
        </mxCell>
        <mxCell id="RtTRbL172uNdjdfyW_E4-41" value="" style="shape=tableRow;horizontal=0;startSize=0;swimlaneHead=0;swimlaneBody=0;strokeColor=#0F8B8D;top=0;left=0;bottom=0;right=0;collapsible=0;dropTarget=0;fillColor=none;points=[[0,0.5],[1,0.5]];portConstraint=eastwest;fontSize=16;labelBackgroundColor=none;fontColor=#143642;" vertex="1" parent="RtTRbL172uNdjdfyW_E4-40">
          <mxGeometry y="30" width="240" height="20" as="geometry" />
        </mxCell>
        <mxCell id="RtTRbL172uNdjdfyW_E4-42" value="a" style="shape=partialRectangle;html=1;whiteSpace=wrap;connectable=0;strokeColor=#0F8B8D;overflow=hidden;fillColor=none;top=0;left=0;bottom=0;right=0;pointerEvents=1;fontSize=16;labelBackgroundColor=none;fontColor=#143642;" vertex="1" parent="RtTRbL172uNdjdfyW_E4-41">
          <mxGeometry width="60" height="20" as="geometry">
            <mxRectangle width="60" height="20" as="alternateBounds" />
          </mxGeometry>
        </mxCell>
        <mxCell id="RtTRbL172uNdjdfyW_E4-43" value="b" style="shape=partialRectangle;html=1;whiteSpace=wrap;connectable=0;strokeColor=#0F8B8D;overflow=hidden;fillColor=none;top=0;left=0;bottom=0;right=0;pointerEvents=1;fontSize=16;labelBackgroundColor=none;fontColor=#143642;" vertex="1" parent="RtTRbL172uNdjdfyW_E4-41">
          <mxGeometry x="60" width="60" height="20" as="geometry">
            <mxRectangle width="60" height="20" as="alternateBounds" />
          </mxGeometry>
        </mxCell>
        <mxCell id="RtTRbL172uNdjdfyW_E4-44" value="c" style="shape=partialRectangle;html=1;whiteSpace=wrap;connectable=0;strokeColor=#0F8B8D;overflow=hidden;fillColor=none;top=0;left=0;bottom=0;right=0;pointerEvents=1;fontSize=16;labelBackgroundColor=none;fontColor=#143642;" vertex="1" parent="RtTRbL172uNdjdfyW_E4-41">
          <mxGeometry x="120" width="60" height="20" as="geometry">
            <mxRectangle width="60" height="20" as="alternateBounds" />
          </mxGeometry>
        </mxCell>
        <mxCell id="RtTRbL172uNdjdfyW_E4-45" value="d" style="shape=partialRectangle;html=1;whiteSpace=wrap;connectable=0;strokeColor=#0F8B8D;overflow=hidden;fillColor=none;top=0;left=0;bottom=0;right=0;pointerEvents=1;fontSize=16;labelBackgroundColor=none;fontColor=#143642;" vertex="1" parent="RtTRbL172uNdjdfyW_E4-41">
          <mxGeometry x="180" width="60" height="20" as="geometry">
            <mxRectangle width="60" height="20" as="alternateBounds" />
          </mxGeometry>
        </mxCell>
        <mxCell id="RtTRbL172uNdjdfyW_E4-46" style="shape=tableRow;horizontal=0;startSize=0;swimlaneHead=0;swimlaneBody=0;strokeColor=#0F8B8D;top=0;left=0;bottom=0;right=0;collapsible=0;dropTarget=0;fillColor=none;points=[[0,0.5],[1,0.5]];portConstraint=eastwest;fontSize=16;labelBackgroundColor=none;fontColor=#143642;" vertex="1" parent="RtTRbL172uNdjdfyW_E4-40">
          <mxGeometry y="50" width="240" height="30" as="geometry" />
        </mxCell>
        <mxCell id="RtTRbL172uNdjdfyW_E4-47" value="R1" style="shape=partialRectangle;html=1;whiteSpace=wrap;connectable=0;strokeColor=#0F8B8D;overflow=hidden;fillColor=none;top=0;left=0;bottom=0;right=0;pointerEvents=1;fontSize=16;labelBackgroundColor=none;fontColor=#143642;" vertex="1" parent="RtTRbL172uNdjdfyW_E4-46">
          <mxGeometry width="60" height="30" as="geometry">
            <mxRectangle width="60" height="30" as="alternateBounds" />
          </mxGeometry>
        </mxCell>
        <mxCell id="RtTRbL172uNdjdfyW_E4-48" style="shape=partialRectangle;html=1;whiteSpace=wrap;connectable=0;strokeColor=#0F8B8D;overflow=hidden;fillColor=none;top=0;left=0;bottom=0;right=0;pointerEvents=1;fontSize=16;labelBackgroundColor=none;fontColor=#143642;" vertex="1" parent="RtTRbL172uNdjdfyW_E4-46">
          <mxGeometry x="60" width="60" height="30" as="geometry">
            <mxRectangle width="60" height="30" as="alternateBounds" />
          </mxGeometry>
        </mxCell>
        <mxCell id="RtTRbL172uNdjdfyW_E4-49" style="shape=partialRectangle;html=1;whiteSpace=wrap;connectable=0;strokeColor=#0F8B8D;overflow=hidden;fillColor=none;top=0;left=0;bottom=0;right=0;pointerEvents=1;fontSize=16;labelBackgroundColor=none;fontColor=#143642;" vertex="1" parent="RtTRbL172uNdjdfyW_E4-46">
          <mxGeometry x="120" width="60" height="30" as="geometry">
            <mxRectangle width="60" height="30" as="alternateBounds" />
          </mxGeometry>
        </mxCell>
        <mxCell id="RtTRbL172uNdjdfyW_E4-50" style="shape=partialRectangle;html=1;whiteSpace=wrap;connectable=0;strokeColor=#0F8B8D;overflow=hidden;fillColor=none;top=0;left=0;bottom=0;right=0;pointerEvents=1;fontSize=16;labelBackgroundColor=none;fontColor=#143642;" vertex="1" parent="RtTRbL172uNdjdfyW_E4-46">
          <mxGeometry x="180" width="60" height="30" as="geometry">
            <mxRectangle width="60" height="30" as="alternateBounds" />
          </mxGeometry>
        </mxCell>
        <mxCell id="RtTRbL172uNdjdfyW_E4-51" style="shape=tableRow;horizontal=0;startSize=0;swimlaneHead=0;swimlaneBody=0;strokeColor=#0F8B8D;top=0;left=0;bottom=0;right=0;collapsible=0;dropTarget=0;fillColor=none;points=[[0,0.5],[1,0.5]];portConstraint=eastwest;fontSize=16;labelBackgroundColor=none;fontColor=#143642;" vertex="1" parent="RtTRbL172uNdjdfyW_E4-40">
          <mxGeometry y="80" width="240" height="30" as="geometry" />
        </mxCell>
        <mxCell id="RtTRbL172uNdjdfyW_E4-52" value="R2" style="shape=partialRectangle;html=1;whiteSpace=wrap;connectable=0;strokeColor=#0F8B8D;overflow=hidden;fillColor=none;top=0;left=0;bottom=0;right=0;pointerEvents=1;fontSize=16;labelBackgroundColor=none;fontColor=#143642;" vertex="1" parent="RtTRbL172uNdjdfyW_E4-51">
          <mxGeometry width="60" height="30" as="geometry">
            <mxRectangle width="60" height="30" as="alternateBounds" />
          </mxGeometry>
        </mxCell>
        <mxCell id="RtTRbL172uNdjdfyW_E4-53" style="shape=partialRectangle;html=1;whiteSpace=wrap;connectable=0;strokeColor=#0F8B8D;overflow=hidden;fillColor=none;top=0;left=0;bottom=0;right=0;pointerEvents=1;fontSize=16;labelBackgroundColor=none;fontColor=#143642;" vertex="1" parent="RtTRbL172uNdjdfyW_E4-51">
          <mxGeometry x="60" width="60" height="30" as="geometry">
            <mxRectangle width="60" height="30" as="alternateBounds" />
          </mxGeometry>
        </mxCell>
        <mxCell id="RtTRbL172uNdjdfyW_E4-54" style="shape=partialRectangle;html=1;whiteSpace=wrap;connectable=0;strokeColor=#0F8B8D;overflow=hidden;fillColor=none;top=0;left=0;bottom=0;right=0;pointerEvents=1;fontSize=16;labelBackgroundColor=none;fontColor=#143642;" vertex="1" parent="RtTRbL172uNdjdfyW_E4-51">
          <mxGeometry x="120" width="60" height="30" as="geometry">
            <mxRectangle width="60" height="30" as="alternateBounds" />
          </mxGeometry>
        </mxCell>
        <mxCell id="RtTRbL172uNdjdfyW_E4-55" style="shape=partialRectangle;html=1;whiteSpace=wrap;connectable=0;strokeColor=#0F8B8D;overflow=hidden;fillColor=none;top=0;left=0;bottom=0;right=0;pointerEvents=1;fontSize=16;labelBackgroundColor=none;fontColor=#143642;" vertex="1" parent="RtTRbL172uNdjdfyW_E4-51">
          <mxGeometry x="180" width="60" height="30" as="geometry">
            <mxRectangle width="60" height="30" as="alternateBounds" />
          </mxGeometry>
        </mxCell>
        <mxCell id="RtTRbL172uNdjdfyW_E4-56" style="shape=tableRow;horizontal=0;startSize=0;swimlaneHead=0;swimlaneBody=0;strokeColor=#0F8B8D;top=0;left=0;bottom=0;right=0;collapsible=0;dropTarget=0;fillColor=none;points=[[0,0.5],[1,0.5]];portConstraint=eastwest;fontSize=16;labelBackgroundColor=none;fontColor=#143642;" vertex="1" parent="RtTRbL172uNdjdfyW_E4-40">
          <mxGeometry y="110" width="240" height="30" as="geometry" />
        </mxCell>
        <mxCell id="RtTRbL172uNdjdfyW_E4-57" value="R3" style="shape=partialRectangle;html=1;whiteSpace=wrap;connectable=0;strokeColor=#ae4132;overflow=hidden;fillColor=#fad9d5;top=0;left=0;bottom=0;right=0;pointerEvents=1;fontSize=16;labelBackgroundColor=none;" vertex="1" parent="RtTRbL172uNdjdfyW_E4-56">
          <mxGeometry width="60" height="30" as="geometry">
            <mxRectangle width="60" height="30" as="alternateBounds" />
          </mxGeometry>
        </mxCell>
        <mxCell id="RtTRbL172uNdjdfyW_E4-58" style="shape=partialRectangle;html=1;whiteSpace=wrap;connectable=0;strokeColor=#0F8B8D;overflow=hidden;fillColor=none;top=0;left=0;bottom=0;right=0;pointerEvents=1;fontSize=16;labelBackgroundColor=none;fontColor=#143642;" vertex="1" parent="RtTRbL172uNdjdfyW_E4-56">
          <mxGeometry x="60" width="60" height="30" as="geometry">
            <mxRectangle width="60" height="30" as="alternateBounds" />
          </mxGeometry>
        </mxCell>
        <mxCell id="RtTRbL172uNdjdfyW_E4-59" style="shape=partialRectangle;html=1;whiteSpace=wrap;connectable=0;strokeColor=#0F8B8D;overflow=hidden;fillColor=none;top=0;left=0;bottom=0;right=0;pointerEvents=1;fontSize=16;labelBackgroundColor=none;fontColor=#143642;" vertex="1" parent="RtTRbL172uNdjdfyW_E4-56">
          <mxGeometry x="120" width="60" height="30" as="geometry">
            <mxRectangle width="60" height="30" as="alternateBounds" />
          </mxGeometry>
        </mxCell>
        <mxCell id="RtTRbL172uNdjdfyW_E4-60" style="shape=partialRectangle;html=1;whiteSpace=wrap;connectable=0;strokeColor=#0F8B8D;overflow=hidden;fillColor=none;top=0;left=0;bottom=0;right=0;pointerEvents=1;fontSize=16;labelBackgroundColor=none;fontColor=#143642;" vertex="1" parent="RtTRbL172uNdjdfyW_E4-56">
          <mxGeometry x="180" width="60" height="30" as="geometry">
            <mxRectangle width="60" height="30" as="alternateBounds" />
          </mxGeometry>
        </mxCell>
        <mxCell id="RtTRbL172uNdjdfyW_E4-61" value="" style="endArrow=classic;html=1;rounded=0;strokeColor=#A8201A;fontColor=#143642;fillColor=#FAE5C7;" edge="1" parent="RtTRbL172uNdjdfyW_E4-1">
          <mxGeometry width="50" height="50" relative="1" as="geometry">
            <mxPoint x="380" y="530" as="sourcePoint" />
            <mxPoint x="420" y="530" as="targetPoint" />
          </mxGeometry>
        </mxCell>
        <mxCell id="RtTRbL172uNdjdfyW_E4-62" value="A" style="shape=table;startSize=30;container=1;collapsible=0;childLayout=tableLayout;strokeColor=#0F8B8D;fontSize=16;labelBackgroundColor=none;fillColor=#FAE5C7;fontColor=#CCCCCC;dashed=1;" vertex="1" parent="RtTRbL172uNdjdfyW_E4-1">
          <mxGeometry x="190" y="660" width="180" height="140" as="geometry" />
        </mxCell>
        <mxCell id="RtTRbL172uNdjdfyW_E4-63" value="" style="shape=tableRow;horizontal=0;startSize=0;swimlaneHead=0;swimlaneBody=0;strokeColor=#0F8B8D;top=0;left=0;bottom=0;right=0;collapsible=0;dropTarget=0;fillColor=none;points=[[0,0.5],[1,0.5]];portConstraint=eastwest;fontSize=16;labelBackgroundColor=none;fontColor=#143642;" vertex="1" parent="RtTRbL172uNdjdfyW_E4-62">
          <mxGeometry y="30" width="180" height="20" as="geometry" />
        </mxCell>
        <mxCell id="RtTRbL172uNdjdfyW_E4-64" value="a" style="shape=partialRectangle;html=1;whiteSpace=wrap;connectable=0;strokeColor=#0F8B8D;overflow=hidden;fillColor=none;top=0;left=0;bottom=0;right=0;pointerEvents=1;fontSize=16;labelBackgroundColor=none;fontColor=#CCCCCC;" vertex="1" parent="RtTRbL172uNdjdfyW_E4-63">
          <mxGeometry width="60" height="20" as="geometry">
            <mxRectangle width="60" height="20" as="alternateBounds" />
          </mxGeometry>
        </mxCell>
        <mxCell id="RtTRbL172uNdjdfyW_E4-65" value="b" style="shape=partialRectangle;html=1;whiteSpace=wrap;connectable=0;strokeColor=#0F8B8D;overflow=hidden;fillColor=none;top=0;left=0;bottom=0;right=0;pointerEvents=1;fontSize=16;labelBackgroundColor=none;fontColor=#CCCCCC;" vertex="1" parent="RtTRbL172uNdjdfyW_E4-63">
          <mxGeometry x="60" width="60" height="20" as="geometry">
            <mxRectangle width="60" height="20" as="alternateBounds" />
          </mxGeometry>
        </mxCell>
        <mxCell id="RtTRbL172uNdjdfyW_E4-66" value="c" style="shape=partialRectangle;html=1;whiteSpace=wrap;connectable=0;strokeColor=#0F8B8D;overflow=hidden;fillColor=none;top=0;left=0;bottom=0;right=0;pointerEvents=1;fontSize=16;labelBackgroundColor=none;fontColor=#CCCCCC;" vertex="1" parent="RtTRbL172uNdjdfyW_E4-63">
          <mxGeometry x="120" width="60" height="20" as="geometry">
            <mxRectangle width="60" height="20" as="alternateBounds" />
          </mxGeometry>
        </mxCell>
        <mxCell id="RtTRbL172uNdjdfyW_E4-67" style="shape=tableRow;horizontal=0;startSize=0;swimlaneHead=0;swimlaneBody=0;strokeColor=#0F8B8D;top=0;left=0;bottom=0;right=0;collapsible=0;dropTarget=0;fillColor=none;points=[[0,0.5],[1,0.5]];portConstraint=eastwest;fontSize=16;labelBackgroundColor=none;fontColor=#143642;" vertex="1" parent="RtTRbL172uNdjdfyW_E4-62">
          <mxGeometry y="50" width="180" height="30" as="geometry" />
        </mxCell>
        <mxCell id="RtTRbL172uNdjdfyW_E4-68" value="R1" style="shape=partialRectangle;html=1;whiteSpace=wrap;connectable=0;strokeColor=#0F8B8D;overflow=hidden;fillColor=none;top=0;left=0;bottom=0;right=0;pointerEvents=1;fontSize=16;labelBackgroundColor=none;fontColor=#CCCCCC;" vertex="1" parent="RtTRbL172uNdjdfyW_E4-67">
          <mxGeometry width="60" height="30" as="geometry">
            <mxRectangle width="60" height="30" as="alternateBounds" />
          </mxGeometry>
        </mxCell>
        <mxCell id="RtTRbL172uNdjdfyW_E4-69" style="shape=partialRectangle;html=1;whiteSpace=wrap;connectable=0;strokeColor=#0F8B8D;overflow=hidden;fillColor=none;top=0;left=0;bottom=0;right=0;pointerEvents=1;fontSize=16;labelBackgroundColor=none;fontColor=#143642;" vertex="1" parent="RtTRbL172uNdjdfyW_E4-67">
          <mxGeometry x="60" width="60" height="30" as="geometry">
            <mxRectangle width="60" height="30" as="alternateBounds" />
          </mxGeometry>
        </mxCell>
        <mxCell id="RtTRbL172uNdjdfyW_E4-70" style="shape=partialRectangle;html=1;whiteSpace=wrap;connectable=0;strokeColor=#0F8B8D;overflow=hidden;fillColor=none;top=0;left=0;bottom=0;right=0;pointerEvents=1;fontSize=16;labelBackgroundColor=none;fontColor=#143642;" vertex="1" parent="RtTRbL172uNdjdfyW_E4-67">
          <mxGeometry x="120" width="60" height="30" as="geometry">
            <mxRectangle width="60" height="30" as="alternateBounds" />
          </mxGeometry>
        </mxCell>
        <mxCell id="RtTRbL172uNdjdfyW_E4-71" style="shape=tableRow;horizontal=0;startSize=0;swimlaneHead=0;swimlaneBody=0;strokeColor=#0F8B8D;top=0;left=0;bottom=0;right=0;collapsible=0;dropTarget=0;fillColor=none;points=[[0,0.5],[1,0.5]];portConstraint=eastwest;fontSize=16;labelBackgroundColor=none;fontColor=#143642;" vertex="1" parent="RtTRbL172uNdjdfyW_E4-62">
          <mxGeometry y="80" width="180" height="30" as="geometry" />
        </mxCell>
        <mxCell id="RtTRbL172uNdjdfyW_E4-72" value="R2" style="shape=partialRectangle;html=1;whiteSpace=wrap;connectable=0;strokeColor=#0F8B8D;overflow=hidden;fillColor=none;top=0;left=0;bottom=0;right=0;pointerEvents=1;fontSize=16;labelBackgroundColor=none;fontColor=#CCCCCC;" vertex="1" parent="RtTRbL172uNdjdfyW_E4-71">
          <mxGeometry width="60" height="30" as="geometry">
            <mxRectangle width="60" height="30" as="alternateBounds" />
          </mxGeometry>
        </mxCell>
        <mxCell id="RtTRbL172uNdjdfyW_E4-73" style="shape=partialRectangle;html=1;whiteSpace=wrap;connectable=0;strokeColor=#0F8B8D;overflow=hidden;fillColor=none;top=0;left=0;bottom=0;right=0;pointerEvents=1;fontSize=16;labelBackgroundColor=none;fontColor=#143642;" vertex="1" parent="RtTRbL172uNdjdfyW_E4-71">
          <mxGeometry x="60" width="60" height="30" as="geometry">
            <mxRectangle width="60" height="30" as="alternateBounds" />
          </mxGeometry>
        </mxCell>
        <mxCell id="RtTRbL172uNdjdfyW_E4-74" style="shape=partialRectangle;html=1;whiteSpace=wrap;connectable=0;strokeColor=#0F8B8D;overflow=hidden;fillColor=none;top=0;left=0;bottom=0;right=0;pointerEvents=1;fontSize=16;labelBackgroundColor=none;fontColor=#143642;" vertex="1" parent="RtTRbL172uNdjdfyW_E4-71">
          <mxGeometry x="120" width="60" height="30" as="geometry">
            <mxRectangle width="60" height="30" as="alternateBounds" />
          </mxGeometry>
        </mxCell>
        <mxCell id="RtTRbL172uNdjdfyW_E4-75" style="shape=tableRow;horizontal=0;startSize=0;swimlaneHead=0;swimlaneBody=0;strokeColor=#0F8B8D;top=0;left=0;bottom=0;right=0;collapsible=0;dropTarget=0;fillColor=none;points=[[0,0.5],[1,0.5]];portConstraint=eastwest;fontSize=16;labelBackgroundColor=none;fontColor=#143642;" vertex="1" parent="RtTRbL172uNdjdfyW_E4-62">
          <mxGeometry y="110" width="180" height="30" as="geometry" />
        </mxCell>
        <mxCell id="RtTRbL172uNdjdfyW_E4-76" value="R3" style="shape=partialRectangle;html=1;whiteSpace=wrap;connectable=0;strokeColor=#0F8B8D;overflow=hidden;fillColor=none;top=0;left=0;bottom=0;right=0;pointerEvents=1;fontSize=16;labelBackgroundColor=none;fontColor=#CCCCCC;" vertex="1" parent="RtTRbL172uNdjdfyW_E4-75">
          <mxGeometry width="60" height="30" as="geometry">
            <mxRectangle width="60" height="30" as="alternateBounds" />
          </mxGeometry>
        </mxCell>
        <mxCell id="RtTRbL172uNdjdfyW_E4-77" style="shape=partialRectangle;html=1;whiteSpace=wrap;connectable=0;strokeColor=#0F8B8D;overflow=hidden;fillColor=none;top=0;left=0;bottom=0;right=0;pointerEvents=1;fontSize=16;labelBackgroundColor=none;fontColor=#143642;" vertex="1" parent="RtTRbL172uNdjdfyW_E4-75">
          <mxGeometry x="60" width="60" height="30" as="geometry">
            <mxRectangle width="60" height="30" as="alternateBounds" />
          </mxGeometry>
        </mxCell>
        <mxCell id="RtTRbL172uNdjdfyW_E4-78" style="shape=partialRectangle;html=1;whiteSpace=wrap;connectable=0;strokeColor=#0F8B8D;overflow=hidden;fillColor=none;top=0;left=0;bottom=0;right=0;pointerEvents=1;fontSize=16;labelBackgroundColor=none;fontColor=#143642;" vertex="1" parent="RtTRbL172uNdjdfyW_E4-75">
          <mxGeometry x="120" width="60" height="30" as="geometry">
            <mxRectangle width="60" height="30" as="alternateBounds" />
          </mxGeometry>
        </mxCell>
        <mxCell id="RtTRbL172uNdjdfyW_E4-79" value="A" style="shape=table;startSize=30;container=1;collapsible=0;childLayout=tableLayout;strokeColor=#0F8B8D;fontSize=16;labelBackgroundColor=none;fillColor=#FAE5C7;fontColor=#143642;" vertex="1" parent="RtTRbL172uNdjdfyW_E4-1">
          <mxGeometry x="430" y="660" width="240" height="140" as="geometry" />
        </mxCell>
        <mxCell id="RtTRbL172uNdjdfyW_E4-80" value="" style="shape=tableRow;horizontal=0;startSize=0;swimlaneHead=0;swimlaneBody=0;strokeColor=#0F8B8D;top=0;left=0;bottom=0;right=0;collapsible=0;dropTarget=0;fillColor=none;points=[[0,0.5],[1,0.5]];portConstraint=eastwest;fontSize=16;labelBackgroundColor=none;fontColor=#143642;" vertex="1" parent="RtTRbL172uNdjdfyW_E4-79">
          <mxGeometry y="30" width="240" height="20" as="geometry" />
        </mxCell>
        <mxCell id="RtTRbL172uNdjdfyW_E4-81" value="a" style="shape=partialRectangle;html=1;whiteSpace=wrap;connectable=0;strokeColor=#0F8B8D;overflow=hidden;fillColor=none;top=0;left=0;bottom=0;right=0;pointerEvents=1;fontSize=16;labelBackgroundColor=none;fontColor=#143642;" vertex="1" parent="RtTRbL172uNdjdfyW_E4-80">
          <mxGeometry width="60" height="20" as="geometry">
            <mxRectangle width="60" height="20" as="alternateBounds" />
          </mxGeometry>
        </mxCell>
        <mxCell id="RtTRbL172uNdjdfyW_E4-82" value="b" style="shape=partialRectangle;html=1;whiteSpace=wrap;connectable=0;strokeColor=#0F8B8D;overflow=hidden;fillColor=none;top=0;left=0;bottom=0;right=0;pointerEvents=1;fontSize=16;labelBackgroundColor=none;fontColor=#143642;" vertex="1" parent="RtTRbL172uNdjdfyW_E4-80">
          <mxGeometry x="60" width="60" height="20" as="geometry">
            <mxRectangle width="60" height="20" as="alternateBounds" />
          </mxGeometry>
        </mxCell>
        <mxCell id="RtTRbL172uNdjdfyW_E4-83" value="c" style="shape=partialRectangle;html=1;whiteSpace=wrap;connectable=0;strokeColor=#0F8B8D;overflow=hidden;fillColor=none;top=0;left=0;bottom=0;right=0;pointerEvents=1;fontSize=16;labelBackgroundColor=none;fontColor=#143642;" vertex="1" parent="RtTRbL172uNdjdfyW_E4-80">
          <mxGeometry x="120" width="60" height="20" as="geometry">
            <mxRectangle width="60" height="20" as="alternateBounds" />
          </mxGeometry>
        </mxCell>
        <mxCell id="RtTRbL172uNdjdfyW_E4-84" value="d" style="shape=partialRectangle;html=1;whiteSpace=wrap;connectable=0;strokeColor=#0F8B8D;overflow=hidden;fillColor=none;top=0;left=0;bottom=0;right=0;pointerEvents=1;fontSize=16;labelBackgroundColor=none;fontColor=#143642;" vertex="1" parent="RtTRbL172uNdjdfyW_E4-80">
          <mxGeometry x="180" width="60" height="20" as="geometry">
            <mxRectangle width="60" height="20" as="alternateBounds" />
          </mxGeometry>
        </mxCell>
        <mxCell id="RtTRbL172uNdjdfyW_E4-85" style="shape=tableRow;horizontal=0;startSize=0;swimlaneHead=0;swimlaneBody=0;strokeColor=#0F8B8D;top=0;left=0;bottom=0;right=0;collapsible=0;dropTarget=0;fillColor=none;points=[[0,0.5],[1,0.5]];portConstraint=eastwest;fontSize=16;labelBackgroundColor=none;fontColor=#143642;" vertex="1" parent="RtTRbL172uNdjdfyW_E4-79">
          <mxGeometry y="50" width="240" height="30" as="geometry" />
        </mxCell>
        <mxCell id="RtTRbL172uNdjdfyW_E4-86" value="R1" style="shape=partialRectangle;html=1;whiteSpace=wrap;connectable=0;strokeColor=#0F8B8D;overflow=hidden;fillColor=none;top=0;left=0;bottom=0;right=0;pointerEvents=1;fontSize=16;labelBackgroundColor=none;fontColor=#143642;" vertex="1" parent="RtTRbL172uNdjdfyW_E4-85">
          <mxGeometry width="60" height="30" as="geometry">
            <mxRectangle width="60" height="30" as="alternateBounds" />
          </mxGeometry>
        </mxCell>
        <mxCell id="RtTRbL172uNdjdfyW_E4-87" style="shape=partialRectangle;html=1;whiteSpace=wrap;connectable=0;strokeColor=#0F8B8D;overflow=hidden;fillColor=none;top=0;left=0;bottom=0;right=0;pointerEvents=1;fontSize=16;labelBackgroundColor=none;fontColor=#143642;" vertex="1" parent="RtTRbL172uNdjdfyW_E4-85">
          <mxGeometry x="60" width="60" height="30" as="geometry">
            <mxRectangle width="60" height="30" as="alternateBounds" />
          </mxGeometry>
        </mxCell>
        <mxCell id="RtTRbL172uNdjdfyW_E4-88" style="shape=partialRectangle;html=1;whiteSpace=wrap;connectable=0;strokeColor=#0F8B8D;overflow=hidden;fillColor=none;top=0;left=0;bottom=0;right=0;pointerEvents=1;fontSize=16;labelBackgroundColor=none;fontColor=#143642;" vertex="1" parent="RtTRbL172uNdjdfyW_E4-85">
          <mxGeometry x="120" width="60" height="30" as="geometry">
            <mxRectangle width="60" height="30" as="alternateBounds" />
          </mxGeometry>
        </mxCell>
        <mxCell id="RtTRbL172uNdjdfyW_E4-89" style="shape=partialRectangle;html=1;whiteSpace=wrap;connectable=0;strokeColor=#0F8B8D;overflow=hidden;fillColor=none;top=0;left=0;bottom=0;right=0;pointerEvents=1;fontSize=16;labelBackgroundColor=none;fontColor=#143642;" vertex="1" parent="RtTRbL172uNdjdfyW_E4-85">
          <mxGeometry x="180" width="60" height="30" as="geometry">
            <mxRectangle width="60" height="30" as="alternateBounds" />
          </mxGeometry>
        </mxCell>
        <mxCell id="RtTRbL172uNdjdfyW_E4-90" style="shape=tableRow;horizontal=0;startSize=0;swimlaneHead=0;swimlaneBody=0;strokeColor=#0F8B8D;top=0;left=0;bottom=0;right=0;collapsible=0;dropTarget=0;fillColor=none;points=[[0,0.5],[1,0.5]];portConstraint=eastwest;fontSize=16;labelBackgroundColor=none;fontColor=#143642;" vertex="1" parent="RtTRbL172uNdjdfyW_E4-79">
          <mxGeometry y="80" width="240" height="30" as="geometry" />
        </mxCell>
        <mxCell id="RtTRbL172uNdjdfyW_E4-91" value="R2" style="shape=partialRectangle;html=1;whiteSpace=wrap;connectable=0;strokeColor=#0F8B8D;overflow=hidden;fillColor=none;top=0;left=0;bottom=0;right=0;pointerEvents=1;fontSize=16;labelBackgroundColor=none;fontColor=#143642;" vertex="1" parent="RtTRbL172uNdjdfyW_E4-90">
          <mxGeometry width="60" height="30" as="geometry">
            <mxRectangle width="60" height="30" as="alternateBounds" />
          </mxGeometry>
        </mxCell>
        <mxCell id="RtTRbL172uNdjdfyW_E4-92" style="shape=partialRectangle;html=1;whiteSpace=wrap;connectable=0;strokeColor=#0F8B8D;overflow=hidden;fillColor=none;top=0;left=0;bottom=0;right=0;pointerEvents=1;fontSize=16;labelBackgroundColor=none;fontColor=#143642;" vertex="1" parent="RtTRbL172uNdjdfyW_E4-90">
          <mxGeometry x="60" width="60" height="30" as="geometry">
            <mxRectangle width="60" height="30" as="alternateBounds" />
          </mxGeometry>
        </mxCell>
        <mxCell id="RtTRbL172uNdjdfyW_E4-93" style="shape=partialRectangle;html=1;whiteSpace=wrap;connectable=0;strokeColor=#0F8B8D;overflow=hidden;fillColor=none;top=0;left=0;bottom=0;right=0;pointerEvents=1;fontSize=16;labelBackgroundColor=none;fontColor=#143642;" vertex="1" parent="RtTRbL172uNdjdfyW_E4-90">
          <mxGeometry x="120" width="60" height="30" as="geometry">
            <mxRectangle width="60" height="30" as="alternateBounds" />
          </mxGeometry>
        </mxCell>
        <mxCell id="RtTRbL172uNdjdfyW_E4-94" style="shape=partialRectangle;html=1;whiteSpace=wrap;connectable=0;strokeColor=#0F8B8D;overflow=hidden;fillColor=none;top=0;left=0;bottom=0;right=0;pointerEvents=1;fontSize=16;labelBackgroundColor=none;fontColor=#143642;" vertex="1" parent="RtTRbL172uNdjdfyW_E4-90">
          <mxGeometry x="180" width="60" height="30" as="geometry">
            <mxRectangle width="60" height="30" as="alternateBounds" />
          </mxGeometry>
        </mxCell>
        <mxCell id="RtTRbL172uNdjdfyW_E4-95" style="shape=tableRow;horizontal=0;startSize=0;swimlaneHead=0;swimlaneBody=0;strokeColor=#0F8B8D;top=0;left=0;bottom=0;right=0;collapsible=0;dropTarget=0;fillColor=none;points=[[0,0.5],[1,0.5]];portConstraint=eastwest;fontSize=16;labelBackgroundColor=none;fontColor=#143642;" vertex="1" parent="RtTRbL172uNdjdfyW_E4-79">
          <mxGeometry y="110" width="240" height="30" as="geometry" />
        </mxCell>
        <mxCell id="RtTRbL172uNdjdfyW_E4-96" value="R3" style="shape=partialRectangle;html=1;whiteSpace=wrap;connectable=0;strokeColor=#0F8B8D;overflow=hidden;fillColor=none;top=0;left=0;bottom=0;right=0;pointerEvents=1;fontSize=16;labelBackgroundColor=none;fontColor=#143642;" vertex="1" parent="RtTRbL172uNdjdfyW_E4-95">
          <mxGeometry width="60" height="30" as="geometry">
            <mxRectangle width="60" height="30" as="alternateBounds" />
          </mxGeometry>
        </mxCell>
        <mxCell id="RtTRbL172uNdjdfyW_E4-97" style="shape=partialRectangle;html=1;whiteSpace=wrap;connectable=0;strokeColor=#0F8B8D;overflow=hidden;fillColor=none;top=0;left=0;bottom=0;right=0;pointerEvents=1;fontSize=16;labelBackgroundColor=none;fontColor=#143642;" vertex="1" parent="RtTRbL172uNdjdfyW_E4-95">
          <mxGeometry x="60" width="60" height="30" as="geometry">
            <mxRectangle width="60" height="30" as="alternateBounds" />
          </mxGeometry>
        </mxCell>
        <mxCell id="RtTRbL172uNdjdfyW_E4-98" style="shape=partialRectangle;html=1;whiteSpace=wrap;connectable=0;strokeColor=#0F8B8D;overflow=hidden;fillColor=none;top=0;left=0;bottom=0;right=0;pointerEvents=1;fontSize=16;labelBackgroundColor=none;fontColor=#143642;" vertex="1" parent="RtTRbL172uNdjdfyW_E4-95">
          <mxGeometry x="120" width="60" height="30" as="geometry">
            <mxRectangle width="60" height="30" as="alternateBounds" />
          </mxGeometry>
        </mxCell>
        <mxCell id="RtTRbL172uNdjdfyW_E4-99" style="shape=partialRectangle;html=1;whiteSpace=wrap;connectable=0;strokeColor=#0F8B8D;overflow=hidden;fillColor=none;top=0;left=0;bottom=0;right=0;pointerEvents=1;fontSize=16;labelBackgroundColor=none;fontColor=#143642;" vertex="1" parent="RtTRbL172uNdjdfyW_E4-95">
          <mxGeometry x="180" width="60" height="30" as="geometry">
            <mxRectangle width="60" height="30" as="alternateBounds" />
          </mxGeometry>
        </mxCell>
        <mxCell id="RtTRbL172uNdjdfyW_E4-100" value="row log:&lt;div&gt;insert R3&lt;/div&gt;" style="rounded=0;whiteSpace=wrap;html=1;strokeColor=#6c8ebf;fillColor=#dae8fc;" vertex="1" parent="RtTRbL172uNdjdfyW_E4-1">
          <mxGeometry x="430" y="395" width="150" height="45" as="geometry" />
        </mxCell>
        <mxCell id="RtTRbL172uNdjdfyW_E4-101" value="A" style="shape=table;startSize=30;container=1;collapsible=0;childLayout=tableLayout;strokeColor=#0F8B8D;fontSize=16;labelBackgroundColor=none;fillColor=#FAE5C7;fontColor=#143642;" vertex="1" parent="RtTRbL172uNdjdfyW_E4-1">
          <mxGeometry x="190" y="475" width="180" height="140" as="geometry" />
        </mxCell>
        <mxCell id="RtTRbL172uNdjdfyW_E4-102" value="" style="shape=tableRow;horizontal=0;startSize=0;swimlaneHead=0;swimlaneBody=0;strokeColor=#0F8B8D;top=0;left=0;bottom=0;right=0;collapsible=0;dropTarget=0;fillColor=none;points=[[0,0.5],[1,0.5]];portConstraint=eastwest;fontSize=16;labelBackgroundColor=none;fontColor=#143642;" vertex="1" parent="RtTRbL172uNdjdfyW_E4-101">
          <mxGeometry y="30" width="180" height="20" as="geometry" />
        </mxCell>
        <mxCell id="RtTRbL172uNdjdfyW_E4-103" value="a" style="shape=partialRectangle;html=1;whiteSpace=wrap;connectable=0;strokeColor=#0F8B8D;overflow=hidden;fillColor=none;top=0;left=0;bottom=0;right=0;pointerEvents=1;fontSize=16;labelBackgroundColor=none;fontColor=#143642;" vertex="1" parent="RtTRbL172uNdjdfyW_E4-102">
          <mxGeometry width="60" height="20" as="geometry">
            <mxRectangle width="60" height="20" as="alternateBounds" />
          </mxGeometry>
        </mxCell>
        <mxCell id="RtTRbL172uNdjdfyW_E4-104" value="b" style="shape=partialRectangle;html=1;whiteSpace=wrap;connectable=0;strokeColor=#0F8B8D;overflow=hidden;fillColor=none;top=0;left=0;bottom=0;right=0;pointerEvents=1;fontSize=16;labelBackgroundColor=none;fontColor=#143642;" vertex="1" parent="RtTRbL172uNdjdfyW_E4-102">
          <mxGeometry x="60" width="60" height="20" as="geometry">
            <mxRectangle width="60" height="20" as="alternateBounds" />
          </mxGeometry>
        </mxCell>
        <mxCell id="RtTRbL172uNdjdfyW_E4-105" value="c" style="shape=partialRectangle;html=1;whiteSpace=wrap;connectable=0;strokeColor=#0F8B8D;overflow=hidden;fillColor=none;top=0;left=0;bottom=0;right=0;pointerEvents=1;fontSize=16;labelBackgroundColor=none;fontColor=#143642;" vertex="1" parent="RtTRbL172uNdjdfyW_E4-102">
          <mxGeometry x="120" width="60" height="20" as="geometry">
            <mxRectangle width="60" height="20" as="alternateBounds" />
          </mxGeometry>
        </mxCell>
        <mxCell id="RtTRbL172uNdjdfyW_E4-106" style="shape=tableRow;horizontal=0;startSize=0;swimlaneHead=0;swimlaneBody=0;strokeColor=#0F8B8D;top=0;left=0;bottom=0;right=0;collapsible=0;dropTarget=0;fillColor=none;points=[[0,0.5],[1,0.5]];portConstraint=eastwest;fontSize=16;labelBackgroundColor=none;fontColor=#143642;" vertex="1" parent="RtTRbL172uNdjdfyW_E4-101">
          <mxGeometry y="50" width="180" height="30" as="geometry" />
        </mxCell>
        <mxCell id="RtTRbL172uNdjdfyW_E4-107" value="R1" style="shape=partialRectangle;html=1;whiteSpace=wrap;connectable=0;strokeColor=#0F8B8D;overflow=hidden;fillColor=none;top=0;left=0;bottom=0;right=0;pointerEvents=1;fontSize=16;labelBackgroundColor=none;fontColor=#143642;" vertex="1" parent="RtTRbL172uNdjdfyW_E4-106">
          <mxGeometry width="60" height="30" as="geometry">
            <mxRectangle width="60" height="30" as="alternateBounds" />
          </mxGeometry>
        </mxCell>
        <mxCell id="RtTRbL172uNdjdfyW_E4-108" style="shape=partialRectangle;html=1;whiteSpace=wrap;connectable=0;strokeColor=#0F8B8D;overflow=hidden;fillColor=none;top=0;left=0;bottom=0;right=0;pointerEvents=1;fontSize=16;labelBackgroundColor=none;fontColor=#143642;" vertex="1" parent="RtTRbL172uNdjdfyW_E4-106">
          <mxGeometry x="60" width="60" height="30" as="geometry">
            <mxRectangle width="60" height="30" as="alternateBounds" />
          </mxGeometry>
        </mxCell>
        <mxCell id="RtTRbL172uNdjdfyW_E4-109" style="shape=partialRectangle;html=1;whiteSpace=wrap;connectable=0;strokeColor=#0F8B8D;overflow=hidden;fillColor=none;top=0;left=0;bottom=0;right=0;pointerEvents=1;fontSize=16;labelBackgroundColor=none;fontColor=#143642;" vertex="1" parent="RtTRbL172uNdjdfyW_E4-106">
          <mxGeometry x="120" width="60" height="30" as="geometry">
            <mxRectangle width="60" height="30" as="alternateBounds" />
          </mxGeometry>
        </mxCell>
        <mxCell id="RtTRbL172uNdjdfyW_E4-110" style="shape=tableRow;horizontal=0;startSize=0;swimlaneHead=0;swimlaneBody=0;strokeColor=#0F8B8D;top=0;left=0;bottom=0;right=0;collapsible=0;dropTarget=0;fillColor=none;points=[[0,0.5],[1,0.5]];portConstraint=eastwest;fontSize=16;labelBackgroundColor=none;fontColor=#143642;" vertex="1" parent="RtTRbL172uNdjdfyW_E4-101">
          <mxGeometry y="80" width="180" height="30" as="geometry" />
        </mxCell>
        <mxCell id="RtTRbL172uNdjdfyW_E4-111" value="R2" style="shape=partialRectangle;html=1;whiteSpace=wrap;connectable=0;strokeColor=#0F8B8D;overflow=hidden;fillColor=none;top=0;left=0;bottom=0;right=0;pointerEvents=1;fontSize=16;labelBackgroundColor=none;fontColor=#143642;" vertex="1" parent="RtTRbL172uNdjdfyW_E4-110">
          <mxGeometry width="60" height="30" as="geometry">
            <mxRectangle width="60" height="30" as="alternateBounds" />
          </mxGeometry>
        </mxCell>
        <mxCell id="RtTRbL172uNdjdfyW_E4-112" style="shape=partialRectangle;html=1;whiteSpace=wrap;connectable=0;strokeColor=#0F8B8D;overflow=hidden;fillColor=none;top=0;left=0;bottom=0;right=0;pointerEvents=1;fontSize=16;labelBackgroundColor=none;fontColor=#143642;" vertex="1" parent="RtTRbL172uNdjdfyW_E4-110">
          <mxGeometry x="60" width="60" height="30" as="geometry">
            <mxRectangle width="60" height="30" as="alternateBounds" />
          </mxGeometry>
        </mxCell>
        <mxCell id="RtTRbL172uNdjdfyW_E4-113" style="shape=partialRectangle;html=1;whiteSpace=wrap;connectable=0;strokeColor=#0F8B8D;overflow=hidden;fillColor=none;top=0;left=0;bottom=0;right=0;pointerEvents=1;fontSize=16;labelBackgroundColor=none;fontColor=#143642;" vertex="1" parent="RtTRbL172uNdjdfyW_E4-110">
          <mxGeometry x="120" width="60" height="30" as="geometry">
            <mxRectangle width="60" height="30" as="alternateBounds" />
          </mxGeometry>
        </mxCell>
        <mxCell id="RtTRbL172uNdjdfyW_E4-114" style="shape=tableRow;horizontal=0;startSize=0;swimlaneHead=0;swimlaneBody=0;strokeColor=#0F8B8D;top=0;left=0;bottom=0;right=0;collapsible=0;dropTarget=0;fillColor=none;points=[[0,0.5],[1,0.5]];portConstraint=eastwest;fontSize=16;labelBackgroundColor=none;fontColor=#143642;" vertex="1" parent="RtTRbL172uNdjdfyW_E4-101">
          <mxGeometry y="110" width="180" height="30" as="geometry" />
        </mxCell>
        <mxCell id="RtTRbL172uNdjdfyW_E4-115" value="R3" style="shape=partialRectangle;html=1;whiteSpace=wrap;connectable=0;strokeColor=#ae4132;overflow=hidden;fillColor=#fad9d5;top=0;left=0;bottom=0;right=0;pointerEvents=1;fontSize=16;labelBackgroundColor=none;" vertex="1" parent="RtTRbL172uNdjdfyW_E4-114">
          <mxGeometry width="60" height="30" as="geometry">
            <mxRectangle width="60" height="30" as="alternateBounds" />
          </mxGeometry>
        </mxCell>
        <mxCell id="RtTRbL172uNdjdfyW_E4-116" style="shape=partialRectangle;html=1;whiteSpace=wrap;connectable=0;strokeColor=#0F8B8D;overflow=hidden;fillColor=none;top=0;left=0;bottom=0;right=0;pointerEvents=1;fontSize=16;labelBackgroundColor=none;fontColor=#143642;" vertex="1" parent="RtTRbL172uNdjdfyW_E4-114">
          <mxGeometry x="60" width="60" height="30" as="geometry">
            <mxRectangle width="60" height="30" as="alternateBounds" />
          </mxGeometry>
        </mxCell>
        <mxCell id="RtTRbL172uNdjdfyW_E4-117" style="shape=partialRectangle;html=1;whiteSpace=wrap;connectable=0;strokeColor=#0F8B8D;overflow=hidden;fillColor=none;top=0;left=0;bottom=0;right=0;pointerEvents=1;fontSize=16;labelBackgroundColor=none;fontColor=#143642;" vertex="1" parent="RtTRbL172uNdjdfyW_E4-114">
          <mxGeometry x="120" width="60" height="30" as="geometry">
            <mxRectangle width="60" height="30" as="alternateBounds" />
          </mxGeometry>
        </mxCell>
      </root>
    </mxGraphModel>
  </diagram>
</mxfile>
